<svg xmlns="http://www.w3.org/2000/svg" xmlns:xlink="http://www.w3.org/1999/xlink" version="1.1" id="Capa_1" x="0px" y="0px" viewBox="0 0 512.001 512.001" style="enable-background:new 0 0 512.001 512.001;" xml:space="preserve"><script xmlns=""/>
<polygon style="fill:#FFC66C;" points="256.008,208.033 256.008,256.028 453.986,256.028 453.986,454.006 10.034,454.006   10.034,502.001 501.981,502.001 501.981,208.033 "/>
<circle style="fill:#C9F3FF;" cx="118.017" cy="118.047" r="107.988"/>
<path style="fill:#4DBAF6;" d="M306.668,454.006h-37.329c-7.363,0-13.332-5.969-13.332-13.332V314.931  c0-7.363,5.969-13.332,13.332-13.332h37.329c7.363,0,13.332,5.969,13.332,13.332v125.743  C320.001,448.038,314.031,454.006,306.668,454.006z"/>
<path style="fill:#FFB954;" d="M242.675,454.006h-37.329c-7.363,0-13.332-5.969-13.332-13.332v-85.324  c0-7.363,5.969-13.332,13.332-13.332h37.329c7.363,0,13.332,5.969,13.332,13.332v85.324  C256.008,448.038,250.038,454.006,242.675,454.006z"/>
<path style="fill:#6A80FF;" d="M370.661,454.006h-37.329c-7.363,0-13.332-5.969-13.332-13.332V314.931  c0-7.363,5.969-13.332,13.332-13.332h37.329c7.363,0,13.332,5.969,13.332,13.332v125.743  C383.994,448.038,378.024,454.006,370.661,454.006z"/>
<path style="fill:#A0E557;" d="M179.09,454.006h-37.329c-7.363,0-13.332-5.969-13.332-13.332v-85.324  c0-7.363,5.969-13.332,13.332-13.332h37.329c7.363,0,13.332,5.969,13.332,13.332v85.324  C192.421,448.038,186.453,454.006,179.09,454.006z"/>
<polygon style="fill:#FF5D5D;" points="325.775,124.042 442.213,124.042 421.006,208.033 346.981,208.033 "/>
<g>
	<path style="fill:#A0E557;" d="M328.606,107.154c24.715,24.715,53.515,15.01,53.515,15.01s9.705-28.8-15.01-53.515   s-53.235-15.036-53.516-15.011C313.594,53.638,303.89,82.439,328.606,107.154z"/>
	<path style="fill:#A0E557;" d="M454.392,53.638c-0.281-0.024-28.801-9.704-53.516,15.011s-15.01,53.515-15.01,53.515   s28.8,9.705,53.515-15.01S454.392,53.638,454.392,53.638z"/>
</g>
<path d="M118.022,34.052c-5.522,0-9.999,4.478-9.999,9.999v73.992c0,5.521,4.477,9.999,9.999,9.999h33.556  c5.522,0,9.999-4.478,9.999-9.999c0-5.521-4.477-9.999-9.999-9.999h-23.557V44.05C128.021,38.529,123.544,34.052,118.022,34.052z"/>
<path d="M108.023,198.552c0,5.521,4.477,9.999,9.999,9.999s9.999-4.478,9.999-9.999v-6.698c0-5.521-4.477-9.999-9.999-9.999  s-9.999,4.478-9.999,9.999V198.552z"/>
<path d="M198.532,128.041c5.522,0,9.999-4.478,9.999-9.999c0-5.521-4.477-9.999-9.999-9.999h-6.699  c-5.522,0-9.999,4.478-9.999,9.999c0,5.521,4.477,9.999,9.999,9.999H198.532z"/>
<path d="M37.512,128.041h6.699c5.522,0,9.999-4.478,9.999-9.999c0-5.521-4.477-9.999-9.999-9.999h-6.699  c-5.522,0-9.999,4.478-9.999,9.999C27.513,123.564,31.991,128.041,37.512,128.041z"/>
<path d="M453.986,341.019c2.63,0,5.209-1.07,7.069-2.931c1.86-1.859,2.93-4.439,2.93-7.068c0-2.63-1.07-5.209-2.93-7.069  c-1.86-1.86-4.44-2.93-7.069-2.93c-2.63,0-5.209,1.069-7.069,2.93c-1.86,1.86-2.93,4.44-2.93,7.069c0,2.63,1.07,5.209,2.93,7.068  C448.777,339.949,451.356,341.019,453.986,341.019z"/>
<path d="M501.981,198.034h-68.138l18.064-71.544c0.755-2.99,0.088-6.159-1.807-8.592c-1.108-1.422-2.568-2.487-4.202-3.136  c0.184-0.18,0.369-0.354,0.553-0.538c28.769-28.771,17.894-62.363,17.416-63.779c-1.082-3.211-3.697-5.615-6.897-6.469  c-6.002-1.743-36.539-8.833-62.973,17.419V44.05c0-5.521-4.477-9.999-9.999-9.999c-5.522,0-9.999,4.478-9.999,9.999v17.355  c-26.346-26.176-56.776-19.217-62.978-17.431c-3.203,0.853-5.82,3.259-6.902,6.471c-0.477,1.416-11.353,35.008,17.416,63.779l0,0  c0.184,0.184,0.369,0.357,0.553,0.538c-1.634,0.649-3.095,1.714-4.203,3.136c-1.895,2.433-2.562,5.602-1.807,8.592l18.064,71.544  h-78.137c-5.522,0-9.999,4.478-9.999,9.999v47.995c0,5.521,4.477,9.999,9.999,9.999h187.98v24.497c0,5.521,4.477,9.999,9.999,9.999  c5.522,0,9.999-4.478,9.999-9.999v-34.496c0-5.521-4.477-9.999-9.999-9.999h-187.98v-27.997h80.974h74.025h70.975v273.971H20.031  v-27.997h433.953c5.522,0,9.999-4.478,9.999-9.999v-83.991c0-5.521-4.477-9.999-9.999-9.999c-5.522,0-9.999,4.478-9.999,9.999  v73.992h-50.237c0.156-1.089,0.242-2.201,0.242-3.333V314.932c0-12.865-10.466-23.331-23.331-23.331h-37.329  c-4.954,0-9.55,1.557-13.332,4.202c-3.783-2.644-8.377-4.202-13.332-4.202h-37.329c-12.865,0-23.33,10.467-23.33,23.331v17.33  c-1.089-0.156-2.201-0.242-3.333-0.242h-37.329c-4.864,0-9.385,1.499-13.129,4.056c-3.743-2.557-8.263-4.056-13.129-4.056h-37.329  c-12.865,0-23.33,10.466-23.33,23.331v85.325c0,1.132,0.085,2.244,0.242,3.333H10.034c-5.522,0-9.999,4.478-9.999,9.999v47.995  c0,5.521,4.477,9.999,9.999,9.999h491.947c5.522,0,9.999-4.478,9.999-9.999V208.034C511.98,202.511,507.503,198.034,501.981,198.034  z M456.924,43.964c-0.29-0.076-0.585-0.139-0.884-0.188C456.424,43.839,456.732,43.912,456.924,43.964z M445.968,62.092  c1.004,8.022,0.604,23.728-13.658,37.991c-10.733,10.732-22.285,13.615-30.752,13.96h-3.584c-1.36-0.054-2.603-0.164-3.695-0.302  c-0.141-1.112-0.252-2.379-0.305-3.769c0.032-1.13,0.034-2.308,0.003-3.526c0.349-8.458,3.236-19.996,13.966-30.727  C422.115,61.553,437.628,61.022,445.968,62.092z M322.012,62.092c8.34-1.063,23.858-0.542,38.027,13.628  c10.785,10.784,13.642,22.394,13.964,30.872c-0.026,1.123-0.023,2.21,0.004,3.258c-0.051,1.441-0.165,2.753-0.309,3.899  c-1.034,0.131-2.203,0.238-3.479,0.295h-3.965c-8.445-0.375-19.909-3.29-30.58-13.96l0,0  C321.398,85.806,321.014,70.081,322.012,62.092z M354.769,198.034l-16.157-63.993h28.828c0.215,0.002,0.432,0.006,0.644,0.006  c0.146,0,0.284-0.005,0.428-0.006h30.963c0.144,0.001,0.283,0.006,0.428,0.006c0.212,0,0.429-0.004,0.644-0.006h28.828  l-16.157,63.993H354.769z M333.332,311.599h37.329c1.838,0,3.333,1.496,3.333,3.334v125.743c0,1.838-1.496,3.333-3.333,3.333  h-37.329c-1.838,0-3.333-1.495-3.333-3.333V314.932C330,313.095,331.494,311.599,333.332,311.599z M266.006,314.932  c0-1.838,1.496-3.334,3.333-3.334h37.329c1.838,0,3.333,1.496,3.333,3.334v125.743c0,1.838-1.496,3.333-3.333,3.333h-37.329  c-1.838,0-3.333-1.495-3.333-3.333v-85.325V314.932z M205.346,352.017h37.329c1.838,0,3.333,1.495,3.333,3.333v85.325  c0,1.838-1.496,3.333-3.333,3.333h-37.329c-1.308,0-2.431-0.764-2.977-1.863c0.03-0.486,0.051-0.976,0.051-1.47V355.35  c0-0.494-0.021-0.983-0.051-1.47C202.915,352.782,204.038,352.017,205.346,352.017z M138.427,440.675V355.35  c0-1.838,1.495-3.333,3.333-3.333h37.329c1.308,0,2.431,0.764,2.977,1.863c-0.03,0.486-0.051,0.976-0.051,1.47v85.325  c0,0.494,0.021,0.983,0.051,1.47c-0.546,1.099-1.669,1.863-2.977,1.863H141.76C139.922,444.007,138.427,442.513,138.427,440.675z"/>
<path d="M118.022,235.975c30.214,0,60.429-11.501,83.43-34.502c46.002-46.003,46.002-120.856,0-166.859  C170.086,3.248,124.333-7.851,82.045,5.651c-5.26,1.68-8.164,7.306-6.484,12.566c1.68,5.261,7.307,8.161,12.567,6.484  c35.125-11.215,73.132-1.999,99.183,24.053c38.206,38.206,38.206,100.371,0,138.577c-38.206,38.207-100.372,38.207-138.578,0  C23.302,161.9,13.852,124.657,24.068,90.134c1.567-5.295-1.455-10.858-6.75-12.426c-5.289-1.567-10.857,1.456-12.425,6.751  c-12.3,41.558-0.92,86.394,29.699,117.012C57.594,224.474,87.808,235.975,118.022,235.975z"/>
<path d="M41.663,51.683c2.563,0,5.124-0.979,7.078-2.937l0.644-0.638c3.938-3.873,3.99-10.203,0.117-14.14  c-3.872-3.938-10.202-3.99-14.14-0.118c-0.259,0.256-0.518,0.512-0.776,0.771c-3.901,3.909-3.895,10.239,0.015,14.14  C36.551,50.71,39.107,51.683,41.663,51.683z"/>
<path d="M384.003,20.053c2.63,0,5.199-1.07,7.069-2.931c1.86-1.859,2.93-4.439,2.93-7.068s-1.07-5.209-2.93-7.069  c-1.87-1.86-4.44-2.93-7.069-2.93c-2.64,0-5.209,1.069-7.079,2.93c-1.86,1.86-2.92,4.44-2.92,7.069s1.06,5.209,2.92,7.068  C378.793,18.983,381.363,20.053,384.003,20.053z"/>
<g>
</g>
<g>
</g>
<g>
</g>
<g>
</g>
<g>
</g>
<g>
</g>
<g>
</g>
<g>
</g>
<g>
</g>
<g>
</g>
<g>
</g>
<g>
</g>
<g>
</g>
<g>
</g>
<g>
</g>
</svg>
