<svg id="Capa_1" enable-background="new 0 0 512 512" height="512" viewBox="0 0 512 512" width="512" xmlns="http://www.w3.org/2000/svg"><g><g><path d="m403.57 457c0-20.42 13.06-38.54 32.43-45-12.431 0-297.016 0-315 0-24.85 0-45 20.15-45 45s20.15 45 45 45h315c-19.371-6.46-32.43-24.58-32.43-45z" fill="#eefaff"/><path d="m135.999 10h300v402h-300z" fill="#ff9171"/><path d="m120.999 10c-24.85 0-45 20.15-45 45v402c0-24.85 20.15-45 45-45h15c0-3.275 0-390.068 0-402z" fill="#c1b0b5"/><g fill="#ffda8f"><circle cx="285.999" cy="226" r="90"/><path d="m255.999 10v96l-30-30-30 30v-96z"/></g></g><g><circle cx="255.999" cy="502" r="10"/><path d="m185.999 226c0 55.141 44.859 100 100 100s100-44.859 100-100-44.859-100-100-100-100 44.859-100 100zm180 0c0 44.112-35.888 80-80 80s-80-35.888-80-80 35.888-80 80-80 80 35.888 80 80z"/><path d="m245.999 226c0 22.056 17.944 40 40 40s40-17.944 40-40-17.944-40-40-40-40 17.944-40 40zm60 0c0 11.028-8.972 20-20 20s-20-8.972-20-20 8.972-20 20-20 20 8.972 20 20z"/><path d="m445.871 503.603c.785-4.841-2.055-9.537-6.707-11.089-15.309-5.105-25.594-19.377-25.594-35.514s10.285-30.408 25.594-35.514c4.004-1.335 6.836-5.165 6.836-9.486v-402c0-5.522-4.478-10-10-10h-315c-30.327 0-55 24.673-55 55v402c0 30.327 24.673 55 55 55h90c5.522 0 10-4.478 10-10s-4.478-10-10-10h-90c-19.299 0-35-15.701-35-35s15.701-35 35-35.01h284.454c-7.53 9.809-11.884 22.013-11.884 35.01 0 12.995 4.348 25.201 11.875 35h-104.446c-5.522 0-10 4.478-10 10s4.478 10 10 10h135c4.905 0 9.085-3.557 9.872-8.397zm-19.872-101.603h-280v-382h40v86c0 4.045 2.437 7.691 6.173 9.239 3.738 1.545 8.039.691 10.898-2.168l22.929-22.929 22.929 22.929c2.861 2.861 7.161 3.714 10.898 2.168 3.736-1.548 6.173-5.194 6.173-9.239v-86h160zm-340-292h40v196h-40zm120-90h40v61.857l-12.929-12.929c-3.906-3.904-10.236-3.904-14.143 0l-12.929 12.929v-61.857zm-85 0h5v70h-40v-35c0-19.299 15.702-35 35-35zm-35 394.604v-88.604h40v76h-5c-13.285 0-25.483 4.733-35 12.604z"/></g></g></svg>
