
<svg height="512pt" viewBox="0 -49 512.00003 512" width="512pt" xmlns="http://www.w3.org/2000/svg"><path d="m130.011719 404h-70v-50h50zm0 0" fill="#fad296"/><path d="m10.011719 354h50v50h-50zm0 0" fill="#fa9600"/><path d="m110.011719 304h-50v-76h70zm0 0" fill="#fad296"/><path d="m10.011719 228h50v76h-50zm0 0" fill="#fa9600"/><path d="m10.011719 304h100v50h-100zm0 0" fill="#fad296"/><path d="m452.011719 354h50v50h-50zm0 0" fill="#fad296"/><path d="m452.011719 404h-70l20-50h50zm0 0" fill="#fa9600"/><path d="m452.011719 228h50v76h-50zm0 0" fill="#fad296"/><path d="m452.011719 304h-50l-20-76h70zm0 0" fill="#fa9600"/><path d="m402.011719 304h100v50h-100zm0 0" fill="#fa9600"/><path d="m481.992188 256.003906c-3.039063 0-6.121094-.695312-9.015626-2.164062-.710937-.351563-77.363281-37.839844-216.960937-37.839844-140.597656 0-216.214844 37.464844-216.964844 37.839844-9.855469 4.988281-21.886719 1.046875-26.875-8.808594-4.992187-9.851562-1.046875-21.886719 8.808594-26.875 3.398437-1.71875 84.980469-42.152344 235.03125-42.152344 150.046875 0 231.628906 40.433594 235.027344 42.152344 9.855469 4.988281 13.800781 17.023438 8.808593 26.875-3.523437 6.960938-10.558593 10.972656-17.859374 10.972656zm0 0" fill="#8b501e"/><path d="m481.992188 132.003906c-3.039063 0-6.121094-.695312-9.015626-2.164062-.710937-.351563-77.363281-37.839844-216.960937-37.839844-140.597656 0-216.214844 37.464844-216.964844 37.839844-9.855469 4.988281-21.886719 1.046875-26.875-8.808594-4.992187-9.851562-1.046875-21.886719 8.808594-26.875 3.398437-1.71875 84.980469-42.152344 235.03125-42.152344 150.046875 0 231.628906 40.433594 235.027344 42.152344 9.855469 4.988281 13.800781 17.023438 8.808593 26.875-3.523437 6.960938-10.558593 10.972656-17.859374 10.972656zm0 0" fill="#efefef"/><path d="m511.863281 233.242188c-.210937-2.21875-.660156-4.429688-1.371093-6.597657-2.496094-7.617187-7.804688-13.804687-14.953126-17.421875-1.199218-.609375-11.871093-5.90625-31.546874-12.597656v-59.855469c2.851562 1.207031 4.351562 1.929688 4.445312 1.972657 4.183594 2.121093 8.863281 3.238281 13.53125 3.238281 11.382812 0 21.644531-6.304688 26.78125-16.449219 3.621094-7.152344 4.238281-15.28125 1.742188-22.898438-2.496094-7.613281-7.804688-13.804687-14.953126-17.421874-1.199218-.605469-11.871093-5.90625-31.546874-12.597657v-30.140625c.015624-8.804687 4.609374-22.074218 15.378906-22.601562 5.4375-.871094 9.160156-6.011719 8.289062-11.449219-.863281-5.394531-6.0625-9.15625-11.460937-8.292969-20.492188 3.578125-32.230469 22.597656-32.207031 42.34375v23.871094c-40.289063-11.652344-103.589844-24.371094-187.992188-24.371094-84.394531 0-147.699219 12.71875-187.988281 24.371094 0 0 0-23.867188 0-23.871094 0-19.449218-11.777344-38.9375-32.207031-42.34375-5.363282-.894531-10.605469 2.972656-11.460938 8.289063-.871094 5.441406 2.847656 10.578125 8.296875 11.449219 10.894531 1.75 15.371094 12.773437 15.371094 22.605468v30.140625c-19.679688 6.695313-30.347657 11.992188-31.546875 12.597657-7.148438 3.621093-12.460938 9.808593-14.957032 17.421874-2.496093 7.617188-1.875 15.75 1.746094 22.898438 7.46875 14.753906 25.554688 20.683594 40.28125 13.230469.101563-.050781 1.609375-.785157 4.476563-2.011719v59.875c-19.679688 6.691406-30.347657 11.988281-31.546875 12.597656-7.148438 3.617188-12.460938 9.804688-14.957032 17.421875-1.105468 3.371094-1.5937495 6.84375-1.4960932 10.296875v167.058594c0 5.523438 4.4765622 10.003906 10.0000002 10.003906h119.996093c3.316407 0 6.417969-1.648437 8.277344-4.394531 1.863282-2.75 2.238282-6.242187 1.003906-9.324219l-19.28125-48.214844v-43.308593l101.15625-81.964844c11.125-.519531 22.730469-.808594 34.835938-.808594 12.101562 0 23.714844.292969 34.847656.820313l101.144532 81.953125v43.308593l-19.28125 48.214844c-1.234376 3.082032-.855469 6.574219 1.003906 9.324219 1.859375 2.746094 4.960937 4.394531 8.28125 4.394531h119.992187c5.523438 0 10-4.480468 10-10.003906 0 0-.082031-170.765625-.125-170.757812zm-47.871093-139.5c13.960937 5.0625 21.535156 8.820312 22.511718 9.316406 4.710938 2.382812 6.875 8.550781 4.40625 13.4375-2.425781 4.789062-8.742187 6.78125-13.496094 4.375-.183593-.089844-4.726562-2.308594-13.421874-5.644532zm-395.984376-6.625c38.085938-11.554688 101.285157-25.140626 187.992188-25.140626 86.710938 0 149.910156 13.582032 187.992188 25.140626v21.148437c-35.832032-11.359375-99.710938-26.289063-187.992188-26.289063-88.734375 0-152.320312 14.839844-187.992188 26.195313zm375.984376 42.183593v61.054688c-15.359376-4.441407-34.054688-9.039063-55.996094-13.027344v-62.773437c23.828125 4.832031 42.605468 10.257812 55.996094 14.746093zm-75.996094-18.433593v63.148437c-19.253906-2.882813-40.609375-5.222656-63.996094-6.617187v-63.863282c23.78125 1.566406 45.144531 4.195313 63.996094 7.332032zm-83.996094-8.359376v63.953126c-9.058594-.308594-18.390625-.476563-28-.476563-9.605469 0-18.9375.167969-28 .476563v-63.960938c9.027344-.335938 18.355469-.523438 28-.523438s18.96875.191407 28 .53125zm-75.996094 1.007813v63.882813c-21.785156 1.296874-41.796875 3.417968-59.996094 6.035156v-63.289063c17.832032-2.832031 37.847657-5.1875 59.996094-6.628906zm-139.996094 25.710937c14.109376-4.753906 34.207032-10.542968 60-15.558593v62.949219c-23.679687 4.148437-43.714843 9.027343-60 13.738281zm-33.472656-8.328124c-4.917968 2.492187-10.949218.515624-13.441406-4.402344-2.46875-4.878906-.460938-10.972656 4.40625-13.4375.972656-.496094 8.550781-4.253906 22.511719-9.316406v21.429687c-8.742188 3.378906-13.292969 5.632813-13.476563 5.726563zm81.960938 119.148437-14.195313 53.945313h-32.289062v-41.425782c11.722656-3.871094 27.269531-8.355468 46.484375-12.519531zm-96.484375 73.945313h79.996093v30.003906h-79.996093zm30-20h-30v-29.742188c7.460937 2.640625 15.9375 2.359375 23.523437-1.480469.121094-.0625 2.300782-1.125 6.476563-2.851562zm0 100.007812h-30v-30h30zm20 0v-30h33.226562l12 30zm57.441406-117.015625 10.84375-41.210937c14.441406-2.535157 30.460937-4.792969 48.035156-6.496094zm128.546875-71c-142.980469 0-220.699219 38.535156-221.464844 38.921875-4.917968 2.492188-10.949218.515625-13.441406-4.402344-2.453125-4.847656-.417969-10.996094 4.40625-13.4375 3.3125-1.679687 82.832031-41.082031 230.5-41.082031 147.679688 0 227.1875 39.402344 230.503906 41.082031 4.863282 2.460938 6.867188 8.570313 4.402344 13.4375-2.480469 4.902344-8.613281 6.84375-13.492188 4.375-.777343-.386718-79.632812-38.894531-221.414062-38.894531zm153.703125 88.007813-14.167969-53.847657c19.171875 4.171875 34.722656 8.644531 46.457032 12.503907v41.34375zm-35.976563-58.132813 10.820313 41.125-58.824219-47.664063c17.539063 1.71875 33.554688 3.988282 48.003906 6.539063zm68.265626 158.140625h-45.226563l12-30h33.226563zm50 0h-30v-30h30zm0-50.003906h-79.996094v-30.003906h79.996094zm-30-50.003906s0-34.042969.003906-34.042969c6.625 2.714843 12.609375 6.042969 19.972656 6.042969 3.484375 0 6.863281-.597657 10.019531-1.707032v29.707032zm0 0"/><path d="m9.960938 46.785156h.050781c5.488281 0 9.96875-4.460937 10-9.953125.03125-5.511719-4.4375-10.019531-9.949219-10.050781h-.050781c-5.488281 0-9.9687502 4.472656-10.0000002 9.960938-.00781255 2.671874 1.0195312 5.179687 2.9023432 7.082031 1.878907 1.898437 4.378907 2.949219 7.046876 2.960937zm0 0"/><path d="m501.988281 46.785156h.050781c2.671876-.011718 5.171876-1.0625 7.050782-2.960937 1.878906-1.902344 2.910156-4.410157 2.898437-7.082031-.03125-5.488282-4.507812-9.960938-10-9.960938h-.050781c-5.507812.03125-9.980469 4.539062-9.949219 10.050781.019531 5.492188 4.511719 9.953125 10 9.953125zm0 0"/></svg>
