<svg version="1.1" id="Capa_1" xmlns="http://www.w3.org/2000/svg" xmlns:xlink="http://www.w3.org/1999/xlink" x="0px" y="0px"
	 viewBox="0 0 512.003 512.003" style="enable-background:new 0 0 512.003 512.003;" xml:space="preserve">
<path style="fill:#FDD844;" d="M390.77,405.183V512H121.231V405.183c0-22.052,17.879-39.932,39.932-39.932h70.879v-37.945
	c3.674,1.607,7.527,2.855,11.53,3.704c4.013,0.849,8.166,1.298,12.429,1.298c8.525,0,16.622-1.787,23.959-5.001v37.945h70.879
	c5.301,0,10.352,1.028,14.974,2.915C380.447,374.086,390.77,388.432,390.77,405.183z"/>
<g>
	<path style="fill:#FDAB08;" d="M350.838,365.251h-4.991V512h19.966V368.166C361.19,366.28,356.139,365.251,350.838,365.251z"/>
	<path style="fill:#FDAB08;" d="M280.219,365.251h-0.26v-37.942c-7.338,3.208-15.438,4.998-23.959,4.998l0,0
		c-8.521,0-16.621-1.791-23.959-4.998V348.6c7.567,2.386,15.613,3.674,23.959,3.674c3.098,0,6.153-0.179,9.159-0.524l-119.97,96.799
		V512h19.966v-53.908L280.219,365.251z"/>
</g>
<g>
	<polygon style="fill:#CCA766;" points="280.219,365.251 165.156,458.092 165.156,512 345.847,512 345.847,365.251 	"/>
	<path style="fill:#CCA766;" d="M300.924,139.792v-2.149c0-19.848-16.09-35.938-35.938-35.938h1.997
		c6.872-8.747,8.988-20.32,5.652-30.932L256,22.839l-16.634,47.933c-3.335,10.612-1.22,22.186,5.652,30.932h1.997
		c-19.848,0-35.938,16.09-35.938,35.938v2.149c-25.591,6.967-44.923,30.174-44.923,57.748v18.967c0-8.27,6.705-14.974,14.974-14.974
		c8.27,0,14.974,6.705,14.974,14.974v3.524c0-13.565,13.236-23.181,26.137-18.988l0,0c9.139,2.97,18.689,4.483,28.3,4.483h10.922
		c9.61,0,19.16-1.513,28.3-4.483l0,0c12.901-4.193,26.137,5.424,26.137,18.988v-3.524c0-8.27,6.705-14.974,14.974-14.974
		c8.27,0,14.974,6.705,14.974,14.974V197.54C345.847,169.966,326.515,146.759,300.924,139.792z"/>
</g>
<g>
	<path style="fill:#FDD844;" d="M256,332.308L256,332.308c-33.08,0-59.897-26.817-59.897-59.897v-52.38
		c0-13.565,13.236-23.181,26.137-18.988l0,0c9.139,2.97,18.689,4.483,28.3,4.483h10.922c9.61,0,19.16-1.513,28.3-4.483l0,0
		c12.901-4.193,26.137,5.424,26.137,18.988v52.38C315.898,305.492,289.081,332.308,256,332.308z"/>
	<path style="fill:#FDD844;" d="M330.872,281.395L330.872,281.395c-8.27,0-14.974-6.705-14.974-14.974v-49.915
		c0-8.27,6.705-14.974,14.974-14.974l0,0c8.27,0,14.974,6.705,14.974,14.974v49.915
		C345.847,274.691,339.142,281.395,330.872,281.395z"/>
	<path style="fill:#FDD844;" d="M181.129,281.395L181.129,281.395c-8.27,0-14.974-6.705-14.974-14.974v-49.915
		c0-8.27,6.705-14.974,14.974-14.974l0,0c8.27,0,14.974,6.705,14.974,14.974v49.915
		C196.103,274.691,189.399,281.395,181.129,281.395z"/>
</g>
<path style="fill:#FDAB08;" d="M330.872,201.532c-8.27,0-14.974,6.705-14.974,14.974v3.524c0-13.565-13.236-23.181-26.137-18.988
	l0,0c-9.139,2.97-18.689,4.483-28.3,4.483h-10.922c-9.61,0-19.16-1.513-28.3-4.483l0,0c-12.901-4.193-26.137,5.424-26.137,18.988
	v-3.524c0-8.27-6.705-14.974-14.974-14.974s-14.974,6.705-14.974,14.974v20.964c0-8.27,6.705-14.974,14.974-14.974
	s14.974,6.705,14.974,14.974v3.524c0-13.565,13.236-23.181,26.137-18.988l0,0c9.139,2.97,18.689,4.483,28.3,4.483h10.922
	c9.61,0,19.16-1.513,28.3-4.483l0,0c12.901-4.193,26.137,5.424,26.137,18.988v-3.524c0-8.27,6.705-14.974,14.974-14.974
	c8.27,0,14.974,6.705,14.974,14.974v-20.964C345.847,208.236,339.142,201.532,330.872,201.532z"/>
<g>
	<path style="fill:#B7945C;" d="M330.872,179.569c-8.27,0-14.974,6.705-14.974,14.974v3.524c0-13.565-13.236-23.181-26.137-18.988
		l0,0c-9.139,2.97-18.689,4.483-28.3,4.483h-10.922c-9.61,0-19.16-1.513-28.3-4.483l0,0c-12.901-4.193-26.137,5.424-26.137,18.988
		v-3.524c0-8.27-6.705-14.974-14.974-14.974c-7.194,0-13.197,5.074-14.64,11.839c-0.213,2.017-0.334,4.06-0.334,6.131v18.967
		c0-8.27,6.705-14.974,14.974-14.974s14.974,6.705,14.974,14.974v3.524c0-13.565,13.236-23.181,26.137-18.988l0,0
		c9.139,2.97,18.689,4.483,28.3,4.483h10.922c9.61,0,19.16-1.513,28.3-4.483l0,0c12.901-4.193,26.137,5.424,26.137,18.988v-3.524
		c0-8.27,6.705-14.974,14.974-14.974c8.27,0,14.974,6.705,14.974,14.974v-18.967c0-2.071-0.122-4.114-0.334-6.131
		C344.07,184.645,338.066,179.569,330.872,179.569z"/>
	<rect x="165.157" y="492.037" style="fill:#B7945C;" width="180.69" height="19.966"/>
</g>
<path d="M350.838,357.764h-63.391v-25.782c17.219-9.127,30.025-25.496,34.34-45.027c2.78,1.235,5.853,1.927,9.085,1.927
	c12.386,0,22.462-10.076,22.462-22.462v-38.933v-10.981v-18.967c0-17.971-7.208-34.914-20.296-47.708
	c-7.181-7.019-15.618-12.284-24.773-15.596c-1.381-17.69-13.399-32.43-29.654-37.817c3.576-8.774,4.078-18.624,1.166-27.892L256,0
	l-23.706,68.316l-0.069,0.21c-2.913,9.267-2.411,19.118,1.166,27.892c-16.254,5.387-28.274,20.128-29.654,37.817
	c-9.155,3.312-17.593,8.577-24.773,15.596c-13.089,12.793-20.296,29.737-20.296,47.708v18.967v10.981v38.933
	c0,12.386,10.076,22.462,22.462,22.462c3.233,0,6.305-0.692,9.085-1.927c4.316,19.531,17.12,35.9,34.34,45.027v25.782h-63.391
	c-26.146,0-47.419,21.273-47.419,47.419v106.817h14.974V405.184c0-17.889,14.555-32.444,32.444-32.444h78.366v-34.988
	c5.274,1.33,10.791,2.045,16.472,2.045c5.681,0,11.198-0.715,16.472-2.045v24.131L157.67,454.513V512h14.974v-50.329l110.219-88.933
	h55.497V512h14.974V372.844c16.727,1.28,29.949,15.29,29.949,32.339V512h14.974V405.183
	C398.257,379.037,376.984,357.764,350.838,357.764z M338.359,266.421c0,4.129-3.358,7.487-7.487,7.487
	c-4.129,0-7.487-3.358-7.487-7.487V220.03c0-1.191-0.08-2.366-0.226-3.524h0.226c0-4.129,3.358-7.487,7.487-7.487
	c4.129,0,7.487,3.358,7.487,7.487v10.981V266.421z M246.479,73.114L256,45.677l9.522,27.437c2.207,7.121,1.264,14.776-2.478,21.102
	h-14.088C245.215,87.89,244.272,80.235,246.479,73.114z M247.016,109.19h17.969c13.254,0,24.419,9.11,27.565,21.397
	c-2.509-0.278-5.043-0.433-7.599-0.433H227.05c-2.557,0-5.09,0.156-7.599,0.433C222.597,118.301,233.762,109.19,247.016,109.19z
	 M227.05,145.128h57.901c28.689,0,52.158,22.315,53.351,50.185c-2.327-0.819-4.826-1.269-7.429-1.269
	c-6.103,0-11.641,2.449-15.693,6.412c-0.964-0.94-1.997-1.828-3.112-2.638c-7.192-5.224-16.164-6.647-24.621-3.897
	c-8.406,2.731-17.149,4.117-25.986,4.117H250.54c-8.838,0-17.58-1.385-25.985-4.117c-8.454-2.748-17.428-1.328-24.621,3.897
	c-1.115,0.811-2.147,1.697-3.112,2.638c-4.052-3.963-9.591-6.412-15.693-6.412c-2.604,0-5.102,0.45-7.429,1.269
	C174.892,167.443,198.361,145.128,227.05,145.128z M181.129,273.908c-4.129,0-7.487-3.358-7.487-7.487v-38.933v-10.981
	c0-4.129,3.358-7.487,7.487-7.487c4.129,0,7.487,3.358,7.487,7.487h0.226c-0.146,1.157-0.226,2.333-0.226,3.524v46.391
	C188.616,270.55,185.257,273.908,181.129,273.908z M203.59,272.41v-52.38c0-4.041,1.875-7.721,5.144-10.096
	c2.175-1.58,4.71-2.395,7.295-2.395c1.299,0,2.612,0.206,3.896,0.624c9.902,3.218,20.202,4.85,30.614,4.85h10.921
	c10.411,0,20.712-1.631,30.615-4.85c3.843-1.248,7.922-0.603,11.191,1.771c3.269,2.375,5.144,6.055,5.144,10.096v52.38
	c0,28.9-23.511,52.41-52.41,52.41S203.59,301.31,203.59,272.41z"/>
<g>
	<path style="fill:#FFFFFF;" d="M278.961,175.077h-14.974v-14.974h14.974V175.077z M249.012,175.077h-14.974v-14.974h14.974V175.077
		z"/>
	<path style="fill:#FFFFFF;" d="M158.667,415.166h-14.974c0-15.138,12.315-27.453,27.453-27.453v14.974
		C164.265,402.687,158.667,408.286,158.667,415.166z"/>
	<path style="fill:#FFFFFF;" d="M323.385,478.058h-14.974v-15.973h14.974V478.058z M323.385,447.111h-14.974v-41.928h14.974V447.111
		z"/>
	<path style="fill:#FFFFFF;" d="M263.488,284.39h-14.974v-7.986c0-15.688-12.763-28.451-28.451-28.451v-14.974
		c23.945,0,43.426,19.481,43.426,43.426V284.39z"/>
	<rect x="269.978" y="232.981" style="fill:#FFFFFF;" width="20.964" height="14.974"/>
</g>
<g>
</g>
<g>
</g>
<g>
</g>
<g>
</g>
<g>
</g>
<g>
</g>
<g>
</g>
<g>
</g>
<g>
</g>
<g>
</g>
<g>
</g>
<g>
</g>
<g>
</g>
<g>
</g>
<g>
</g>
</svg>
