<svg version="1.1" id="Capa_1" xmlns="http://www.w3.org/2000/svg" xmlns:xlink="http://www.w3.org/1999/xlink" x="0px" y="0px"
	 viewBox="0 0 511.996 511.996" style="enable-background:new 0 0 511.996 511.996;" xml:space="preserve">
<polygon style="fill:#FAC870;" points="139.207,503.973 170.09,466.226 341.907,466.226 372.791,503.973 "/>
<rect x="169.029" y="432.479" style="fill:#FCD681;" width="173.929" height="37.758"/>
<polygon style="fill:#FAC870;" points="166.953,436.499 197.664,396.754 314.343,396.754 345.044,436.499 "/>
<g>
	<path style="fill:#FCD681;" d="M256.004,400.77c-27.25,0-53.579-7.93-74.138-22.329c-20.47-14.34-33.943-34.105-37.937-55.651
		l-0.44-2.373h2.414c5.065,0,9.186-4.504,9.186-10.039v-2.64c0-2.702-0.974-5.247-2.741-7.163c-1.725-1.852-4.016-2.876-6.445-2.876
		h-2.414l0.44-2.373c3.997-21.555,17.469-41.317,37.933-55.648c20.566-14.401,46.896-22.332,74.141-22.332
		c27.25,0,53.579,7.93,74.138,22.329c20.469,14.328,33.939,34.093,37.927,55.651l0.44,2.373h-2.413
		c-5.066,0-9.186,4.504-9.186,10.039v2.65c0,2.707,0.975,5.244,2.745,7.145c1.731,1.86,4.019,2.884,6.441,2.884h2.413l-0.44,2.373
		c-3.993,21.554-17.461,41.316-37.925,55.648C309.578,392.839,283.249,400.77,256.004,400.77z M256.004,284.375
		c-17.16,0-31.122,11.074-31.122,24.686c0,13.607,13.962,24.676,31.122,24.676c17.155,0,31.112-11.069,31.112-24.676
		C287.115,295.449,273.159,284.375,256.004,284.375z"/>
	<rect x="202.469" y="188.366" style="fill:#FCD681;" width="107.068" height="32.989"/>
</g>
<rect x="225.921" y="138.391" style="fill:#FAC870;" width="60.145" height="53.991"/>
<polygon style="fill:#FCD681;" points="200.51,142.41 226.916,106.401 285.081,106.401 311.487,142.41 "/>
<path style="fill:#FAC870;" d="M225.926,110.416V90.428c0-9.549,7.773-17.318,17.328-17.318h25.5
	c9.549,0,17.318,7.768,17.318,17.318v19.988H225.926z"/>
<path style="fill:#FCD681;" d="M239.961,77.126V49.839c0-8.847,7.196-16.042,16.043-16.042c4.303,0,8.332,1.673,11.344,4.709
	c3.027,3.003,4.699,7.031,4.699,11.332v27.288C272.047,77.126,239.961,77.126,239.961,77.126z"/>
<path d="M299.162,309.061c0-20.255-19.361-36.733-43.159-36.733c-23.803,0-43.169,16.478-43.169,36.733
	c0,20.249,19.366,36.723,43.169,36.723C279.801,345.785,299.162,329.31,299.162,309.061z M232.913,309.061
	c0-9.027,10.574-16.655,23.09-16.655c12.511,0,23.08,7.628,23.08,16.655c0,9.022-10.569,16.645-23.08,16.645
	C243.488,325.706,232.913,318.084,232.913,309.061z"/>
<path d="M350.995,464.647v-30.16c0-0.095-0.011-0.188-0.014-0.282c-0.005-0.191-0.013-0.38-0.029-0.571
	c-0.012-0.147-0.03-0.292-0.049-0.438c-0.023-0.179-0.049-0.357-0.082-0.536c-0.028-0.153-0.061-0.303-0.096-0.453
	c-0.039-0.167-0.08-0.331-0.128-0.497c-0.045-0.156-0.094-0.309-0.147-0.462c-0.052-0.155-0.108-0.308-0.169-0.461
	c-0.062-0.157-0.13-0.31-0.199-0.463c-0.065-0.144-0.133-0.285-0.205-0.427c-0.081-0.158-0.169-0.312-0.258-0.465
	c-0.075-0.129-0.152-0.258-0.234-0.385c-0.101-0.157-0.209-0.309-0.319-0.46c-0.057-0.079-0.106-0.162-0.166-0.239l-27.296-35.337
	c4.577-2.411,8.972-5.079,13.144-8.001c22.2-15.546,36.837-37.126,41.216-60.763c0.543-2.933-0.246-5.955-2.153-8.248
	c-1.907-2.293-4.736-3.619-7.718-3.619c-0.216,0-0.425-0.177-0.564-0.325c-0.178-0.191-0.591-0.736-0.591-1.673v-2.65
	c0-1.245,0.748-2.008,1.155-2.008c2.983,0,5.81-1.325,7.718-3.618c1.908-2.293,2.698-5.315,2.154-8.247
	c-4.374-23.643-19.013-45.226-41.217-60.768c-5.566-3.898-11.527-7.346-17.793-10.328c0.387-1.067,0.608-2.214,0.608-3.414v-28.973
	c0-5.544-4.496-10.039-10.039-10.039h-13.422v-29.897h13.422c3.784,0,7.245-2.126,8.955-5.5c1.71-3.374,1.378-7.425-0.858-10.475
	l-21.519-29.345V90.423c0-9.909-5.718-18.502-14.025-22.669v-17.92c0-6.458-2.516-12.512-7.028-16.988
	c-2.056-2.073-4.428-3.719-7.006-4.903V10.039C266.043,4.496,261.547,0,256.003,0c-5.545,0-10.039,4.496-10.039,10.039v17.923
	c-8.274,3.813-14.035,12.18-14.035,21.872v17.918c-8.312,4.166-14.035,12.761-14.035,22.672v14.694l-21.518,29.344
	c-2.238,3.05-2.57,7.1-0.859,10.475c1.71,3.374,5.171,5.501,8.955,5.501h13.422v29.897h-13.422c-5.545,0-10.039,4.496-10.039,10.039
	v28.973c0,1.203,0.223,2.352,0.61,3.42c-6.263,2.982-12.223,6.428-17.787,10.325c-22.2,15.545-36.84,37.124-41.224,60.761
	c-0.544,2.933,0.245,5.956,2.152,8.249c1.907,2.294,4.737,3.62,7.719,3.62c0.224,0,0.436,0.177,0.54,0.289
	c0.185,0.201,0.614,0.769,0.614,1.719v2.64c0,1.245-0.748,2.008-1.154,2.008c-2.983,0-5.812,1.326-7.718,3.619
	c-1.907,2.294-2.697,5.317-2.152,8.25c4.381,23.628,19.021,45.208,41.226,60.764c4.171,2.921,8.565,5.589,13.141,8l-27.303,35.334
	c-0.058,0.075-0.106,0.157-0.163,0.233c-0.112,0.154-0.222,0.308-0.325,0.468c-0.081,0.125-0.156,0.252-0.231,0.379
	c-0.09,0.155-0.178,0.31-0.26,0.469c-0.072,0.141-0.14,0.282-0.204,0.424c-0.07,0.153-0.137,0.306-0.2,0.464
	c-0.061,0.154-0.116,0.307-0.17,0.463c-0.052,0.152-0.1,0.304-0.146,0.459c-0.048,0.167-0.089,0.333-0.129,0.501
	c-0.034,0.149-0.067,0.297-0.094,0.448c-0.033,0.181-0.059,0.361-0.083,0.543c-0.018,0.143-0.036,0.285-0.048,0.43
	c-0.016,0.193-0.024,0.387-0.029,0.579c-0.003,0.093-0.014,0.184-0.014,0.277v30.159L135.673,495.6
	c-2.457,3.002-2.964,7.151-1.302,10.656c1.661,3.506,5.193,5.74,9.072,5.74h225.109c3.879,0,7.411-2.235,9.072-5.74
	c1.66-3.505,1.154-7.654-1.303-10.656L350.995,464.647z M224.284,130.359l8.737-11.916h45.956l8.738,11.916h-3.651h-56.129H224.284z
	 M258.851,47.042c0.43,0.426,1.149,1.354,1.149,2.792v15.241h-7.991v-15.24c0-2.203,1.793-3.995,3.996-3.995
	C257.442,45.839,258.37,46.558,258.851,47.042z M268.753,85.153c2.906,0,5.271,2.364,5.271,5.271v7.941h-36.051v-7.941
	c0-2.906,2.368-5.271,5.281-5.271C243.254,85.153,268.753,85.153,268.753,85.153z M237.973,150.438h7.991v9.337
	c0,5.544,4.495,10.039,10.039,10.039c5.544,0,10.039-4.496,10.039-10.039v-9.337h7.981v29.897h-36.051L237.973,150.438
	L237.973,150.438z M214.511,209.308v-8.895h13.422h56.129h13.422v8.895H214.511z M157.821,328.643
	c5.618-3.979,9.314-10.684,9.314-18.27v-2.64c0-5.737-2.106-11.181-5.963-15.364c-1.03-1.107-2.151-2.086-3.345-2.932
	c11.27-34.752,51.765-60.05,98.176-60.05c24.8,0,48.674,7.156,67.228,20.151c15.23,10.661,25.992,24.617,30.948,39.923
	c-5.621,3.978-9.318,10.685-9.318,18.272v2.65c0,5.763,2.122,11.217,5.973,15.353c1.028,1.106,2.147,2.084,3.339,2.929
	c-11.259,34.754-51.753,60.054-98.169,60.054c-24.8,0-48.674-7.156-67.225-20.149C173.547,357.899,162.782,343.943,157.821,328.643z
	 M308.427,408.797l12.089,15.651h-4.611c-5.544,0-10.039,4.496-10.039,10.039c0,5.544,4.496,10.039,10.039,10.039h15.012v13.663
	H181.082v-13.663h77.6c5.544,0,10.039-4.496,10.039-10.039c0-5.544-4.496-10.039-10.039-10.039h-67.194l12.093-15.651H308.427z
	 M164.629,491.922l11.171-13.653h160.399l11.171,13.653H164.629z"/>
<path d="M287.795,444.53c12.919,0,12.941-20.078,0-20.078C274.875,424.452,274.853,444.53,287.795,444.53z"/>
<g>
</g>
<g>
</g>
<g>
</g>
<g>
</g>
<g>
</g>
<g>
</g>
<g>
</g>
<g>
</g>
<g>
</g>
<g>
</g>
<g>
</g>
<g>
</g>
<g>
</g>
<g>
</g>
<g>
</g>
</svg>
