<svg version="1.1" id="Capa_1" xmlns="http://www.w3.org/2000/svg" xmlns:xlink="http://www.w3.org/1999/xlink" x="0px" y="0px"
	 viewBox="0 0 511.999 511.999" style="enable-background:new 0 0 511.999 511.999;" xml:space="preserve">
<path style="fill:#D8D7DA;" d="M434.371,234.969v-97.186H153.834v97.186c0,70.663,52.256,129.113,120.23,138.838v74.571
	l-98.188,33.063v23.044h236.453v-23.044l-98.188-33.063v-74.572C382.115,364.082,434.371,305.633,434.371,234.969z"/>
<g>
	<path style="fill:#EA427A;" d="M294.102,345.18c-60.77,0-110.211-49.441-110.211-110.211v-52.1h220.422v52.1
		C404.314,295.74,354.873,345.18,294.102,345.18z"/>
	<polygon style="fill:#EA427A;" points="274.948,12.705 280.444,22.259 84.186,135.196 78.69,125.644 134.416,19.594 155.257,7.601 
			"/>
</g>
<polygon style="fill:#00E5FF;" points="410.325,30.578 371.25,88.689 371.25,182.869 341.193,182.869 341.193,78.67 385.277,16.551 
	"/>
<path style="fill:#ED1653;" d="M294.102,323.138c-60.77,0-110.211-49.441-110.211-110.211v22.042
	c0,60.77,49.441,110.211,110.211,110.211s110.211-49.441,110.211-110.211v-22.042C404.314,273.697,354.873,323.138,294.102,323.138z
	"/>
<rect x="341.194" y="162.832" style="fill:#40C4FF;" width="30.058" height="20.038"/>
<g>
	<rect x="274.065" y="373.806" style="fill:#ACABB1;" width="40.077" height="20.038"/>
	<rect x="175.877" y="481.442" style="fill:#ACABB1;" width="236.453" height="23.044"/>
</g>
<rect x="66.345" y="68.437" transform="matrix(-0.8667 0.4988 -0.4988 -0.8667 372.0735 48.4734)" style="fill:#ED1653;" width="226.43" height="11.021"/>
<g>
	<rect x="240.501" y="204.913" style="fill:#FFFFFF;" width="15.029" height="15.029"/>
	<rect x="209.441" y="217.938" style="fill:#FFFFFF;" width="15.029" height="15.029"/>
	<rect x="264.547" y="248.997" style="fill:#FFFFFF;" width="15.029" height="15.029"/>
	<rect x="233.487" y="262.022" style="fill:#FFFFFF;" width="15.029" height="15.029"/>
	<rect x="321.656" y="211.926" style="fill:#FFFFFF;" width="15.029" height="15.029"/>
	<rect x="290.597" y="224.951" style="fill:#FFFFFF;" width="15.029" height="15.029"/>
	<rect x="367.745" y="233.968" style="fill:#FFFFFF;" width="15.029" height="15.029"/>
	<rect x="314.643" y="246.993" style="fill:#FFFFFF;" width="15.029" height="15.029"/>
	<rect x="288.593" y="278.053" style="fill:#FFFFFF;" width="15.029" height="15.029"/>
	<rect x="257.533" y="291.078" style="fill:#FFFFFF;" width="15.029" height="15.029"/>
	<rect x="345.702" y="267.032" style="fill:#FFFFFF;" width="15.029" height="15.029"/>
	<rect x="318.651" y="291.078" style="fill:#FFFFFF;" width="15.029" height="15.029"/>
</g>
<path d="M405.403,332.186c23.525-26.909,36.482-61.434,36.482-97.217V130.269h-63.121V90.98l42.346-62.975L383.057,6.695
	l-49.379,69.579v53.994H220.645l-28.069-48.776l98.129-56.468l-11.306-19.65L153.399,0l-24.621,14.169L70.114,125.807l11.307,19.649
	l98.129-56.468l23.755,41.28h-56.986v104.701c0,35.784,12.956,70.309,36.482,97.217c21.854,24.995,51.394,41.875,83.748,47.988
	v62.804l-98.188,33.063v35.958h251.482v-35.957l-98.188-33.063v-62.804C354.009,374.062,383.55,357.181,405.403,332.186z
	 M269.326,19.987l-45.06,25.93l-51.72-30.059L269.326,19.987z M87.81,124.44l45.06-85.751l0.001,59.821L87.81,124.44z
	 M147.899,89.862l-0.001-69.357l1.373-0.79l59.966,34.851L147.899,89.862z M348.707,81.064l38.79-54.659l12.043,6.743
	l-35.804,53.248v43.871h-15.029L348.707,81.064L348.707,81.064z M348.707,145.297h15.029v30.058h-15.029V145.297z M396.799,190.384
	L396.799,190.384v44.585c0,56.627-46.069,102.697-102.697,102.697s-102.697-46.069-102.697-102.697v-44.585L396.799,190.384
	L396.799,190.384z M333.678,145.297v30.058H246.59l-17.297-30.058H333.678z M404.815,486.84v10.13H183.39v-10.13l98.188-33.063
	V367.29l-6.45-0.923c-64.865-9.279-113.78-65.768-113.78-131.398v-89.672h50.606l17.297,30.058h-52.873v59.614
	c0,64.914,52.811,117.726,117.726,117.726s117.726-52.811,117.726-117.726v-59.614h-33.063v-30.058h48.092v89.672
	c0,65.631-48.915,122.12-113.781,131.398l-6.45,0.923v86.487L404.815,486.84z"/>
<g>
</g>
<g>
</g>
<g>
</g>
<g>
</g>
<g>
</g>
<g>
</g>
<g>
</g>
<g>
</g>
<g>
</g>
<g>
</g>
<g>
</g>
<g>
</g>
<g>
</g>
<g>
</g>
<g>
</g>
</svg>
