
<svg height="512pt" viewBox="-25 0 512 512" width="512pt" xmlns="http://www.w3.org/2000/svg"><path d="m312.972656 444.5h-159.144531c-5.601563 0-10.144531-4.539062-10.144531-10.144531v-198.417969c0-5.601562 4.542968-10.144531 10.144531-10.144531h159.144531c5.601563 0 10.144532 4.542969 10.144532 10.144531v198.417969c0 5.605469-4.542969 10.144531-10.144532 10.144531zm0 0" fill="#e3e3e3"/><path d="m270.109375 302.066406c0 20.273438-16.4375 36.707032-36.707031 36.707032-20.273438 0-36.707032-16.433594-36.707032-36.707032 0-20.273437 16.433594-36.707031 36.707032-36.707031 20.269531 0 36.707031 16.433594 36.707031 36.707031zm0 0" fill="#fff"/><path d="m211.851562 170.675781h40.984376v55.117188h-40.984376zm0 0" fill="#e3e3e3"/><path d="m186.296875 130.828125h94.824219v39.847656h-94.824219zm0 0" fill="#445c7b"/><path d="m281.121094 10.144531h-94.824219v40.238281h94.824219zm0 0" fill="#445c7b"/><path d="m450.609375 109.160156v-99.015625h-82.585937v214.265625h82.585937v-32.234375" fill="#e3e3e3"/><path d="m368.023438 326.167969h82.585937v118.335937h-82.585937zm0 0" fill="#445c7b"/><path d="m13.40625 10.144531h82.589844v214.265625h-82.589844zm0 0" fill="#e3e3e3"/><path d="m13.40625 326.167969h82.589844v118.335937h-82.589844zm0 0" fill="#445c7b"/><g fill="#67f4d6"><path d="m13.40625 224.410156h82.589844v33.117188h-82.589844zm0 0"/><path d="m13.40625 292.421875h82.589844v33.746094h-82.589844zm0 0"/><path d="m13.40625 257.527344h82.589844v34.894531h-82.589844zm0 0"/><path d="m368.023438 292.421875h82.585937v33.746094h-82.585937zm0 0"/><path d="m368.023438 224.410156h82.585937v33.117188h-82.585937zm0 0"/><path d="m368.023438 257.527344h82.585937v34.894531h-82.585937zm0 0"/><path d="m248.023438 50.382812h-61.726563v63.433594l63.433594-63.433594zm0 0"/><path d="m281.121094 50.382812h-31.390625l-63.433594 63.433594v17.011719h31.628906l63.195313-63.195313zm0 0"/><path d="m217.925781 130.828125h63.195313v-63.195313zm0 0"/></g><path d="m312.160156 215.648438h-49.996094v-34.828126h18.144532c5.601562 0 10.144531-4.539062 10.144531-10.144531v-160.53125c0-5.601562-4.542969-10.144531-10.144531-10.144531h-94.824219c-5.605469 0-10.144531 4.542969-10.144531 10.144531v160.53125c0 5.601563 4.539062 10.144531 10.144531 10.144531h15.40625v34.828126h-47.875c-11.1875 0-20.289063 9.101562-20.289063 20.289062v198.417969c0 11.1875 9.101563 20.289062 20.289063 20.289062h69.355469v37.066407h-34.585938c-5.601562 0-10.144531 4.539062-10.144531 10.144531 0 5.601562 4.542969 10.144531 10.144531 10.144531h87.488282c5.601562 0 10.144531-4.542969 10.144531-10.144531 0-5.605469-4.542969-10.144531-10.144531-10.144531h-32.613282v-37.066407h69.5c11.1875 0 20.289063-9.101562 20.289063-20.289062v-198.417969c0-11.1875-9.101563-20.289062-20.289063-20.289062zm-41.996094-94.964844h-28.5625l28.5625-28.558594zm-74.535156-100.394532h74.535156v19.949219h-74.535156zm0 40.238282h28.792969l-28.792969 28.796875zm0 57.492187 57.488282-57.492187h17.046874v2.902344l-57.253906 57.253906h-17.28125zm0 42.511719v-19.554688h74.535156v19.554688zm46.246094 20.289062v34.828126h-20.691406v-34.828126zm70.285156 253.535157h-69.5v-14.515625c0-5.605469-4.542968-10.144532-10.144531-10.144532-5.605469 0-10.144531 4.539063-10.144531 10.144532v14.515625h-69.355469v-198.417969h159.140625l.015625 198.417969s-.003906 0-.011719 0zm0 0"/><path d="m232.585938 255.214844c-25.832032 0-46.847657 21.019531-46.847657 46.851562 0 25.835938 21.015625 46.851563 46.847657 46.851563 25.835937 0 46.851562-21.015625 46.851562-46.851563 0-25.832031-21.015625-46.851562-46.851562-46.851562zm0 73.414062c-14.644532 0-26.558594-11.917968-26.558594-26.5625 0-14.644531 11.914062-26.5625 26.558594-26.5625 14.648437 0 26.5625 11.917969 26.5625 26.5625 0 14.648438-11.914063 26.5625-26.5625 26.5625zm0 0"/><path d="m242.074219 376.042969c-1.875-5.28125-7.675781-8.039063-12.953125-6.164063-5.28125 1.871094-8.042969 7.671875-6.167969 12.953125l.148437.410157c1.472657 4.160156 5.386719 6.753906 9.558594 6.753906 1.125 0 2.273438-.1875 3.394532-.585938 5.277343-1.875 8.039062-7.675781 6.164062-12.953125zm0 0"/><path d="m452.246094 491.710938h-32.613282v-37.066407h30.164063c5.601563 0 10.144531-4.539062 10.144531-10.144531v-252.324219c0-5.601562-4.542968-10.144531-10.144531-10.144531-5.605469 0-10.144531 4.542969-10.144531 10.144531v22.089844h-62.300782v-193.976563h62.300782v88.871094c0 5.601563 4.539062 10.144532 10.144531 10.144532 5.601563 0 10.144531-4.542969 10.144531-10.144532v-99.015625c0-5.601562-4.542968-10.144531-10.144531-10.144531h-82.589844c-5.601562 0-10.144531 4.542969-10.144531 10.144531v434.355469c0 5.605469 4.542969 10.144531 10.144531 10.144531h32.136719v37.066407h-34.585938c-5.601562 0-10.144531 4.542968-10.144531 10.144531 0 5.601562 4.542969 10.144531 10.144531 10.144531h87.488282c5.601562 0 10.144531-4.542969 10.144531-10.144531 0-5.601563-4.542969-10.144531-10.144531-10.144531zm-74.894532-257.15625h62.300782v12.828124h-62.300782zm0 33.121093h62.300782v14.601563h-62.300782zm0 34.890625h62.300782v13.457032h-62.300782zm0 131.789063v-98.042969h62.300782v98.042969zm0 0"/><path d="m97.632812 491.710938h-32.613281v-37.066407h30.164063c5.601562 0 10.144531-4.539062 10.144531-10.144531v-434.355469c0-5.601562-4.542969-10.144531-10.144531-10.144531h-82.589844c-5.601562 0-10.144531 4.542969-10.144531 10.144531v434.355469c0 5.605469 4.542969 10.144531 10.144531 10.144531h32.136719v37.066407h-34.585938c-5.601562 0-10.144531 4.542968-10.144531 10.144531 0 5.601562 4.542969 10.144531 10.144531 10.144531h87.488281c5.601563 0 10.144532-4.542969 10.144532-10.144531 0-5.601563-4.542969-10.144531-10.144532-10.144531zm-74.894531-471.421876h62.300781v193.976563h-62.300781zm0 214.265626h62.300781v12.828124h-62.300781zm0 33.121093h62.300781v14.601563h-62.300781zm0 34.890625h62.300781v13.457032h-62.300781zm0 131.789063v-98.042969h62.300781v98.042969zm0 0"/><path d="m63.378906 153.066406c-1.871094-5.28125-7.667968-8.042968-12.949218-6.175781-5.28125 1.871094-8.046876 7.667969-6.175782 12.949219l.148438.414062c1.472656 4.160156 5.386718 6.757813 9.558594 6.757813 1.125 0 2.269531-.1875 3.390624-.585938 5.28125-1.871093 8.042969-7.667969 6.171876-12.949219zm0 0"/><path d="m63.378906 115.867188c-1.871094-5.28125-7.667968-8.042969-12.949218-6.175782-5.28125 1.871094-8.046876 7.667969-6.175782 12.949219l.148438.414063c1.472656 4.160156 5.386718 6.757812 9.558594 6.757812 1.125 0 2.269531-.1875 3.390624-.585938 5.28125-1.867187 8.042969-7.667968 6.171876-12.949218zm0 0"/><path d="m63.378906 78.667969c-1.871094-5.28125-7.667968-8.042969-12.949218-6.175781-5.28125 1.871093-8.046876 7.671874-6.175782 12.953124l.148438.410157c1.472656 4.160156 5.386718 6.757812 9.558594 6.757812 1.125 0 2.269531-.1875 3.390624-.585937 5.28125-1.867188 8.042969-7.667969 6.171876-12.949219zm0 0"/><path d="m406.027344 146.890625c-5.28125 1.871094-8.046875 7.667969-6.175782 12.949219l.148438.410156c1.472656 4.164062 5.386719 6.761719 9.558594 6.761719 1.125 0 2.269531-.1875 3.390625-.585938 5.28125-1.871093 8.042969-7.667969 6.171875-12.949219l-.144532-.410156c-1.871093-5.28125-7.667968-8.042968-12.949218-6.175781zm0 0"/><path d="m419.121094 116.28125-.144532-.414062c-1.871093-5.28125-7.667968-8.042969-12.949218-6.171876-5.28125 1.871094-8.046875 7.667969-6.175782 12.949219l.144532.410157c1.476562 4.160156 5.386718 6.761718 9.5625 6.761718 1.125 0 2.269531-.191406 3.386718-.585937 5.28125-1.871094 8.046876-7.667969 6.175782-12.949219zm0 0"/><path d="m459.441406 147.335938c-1.871094-5.28125-7.667968-8.042969-12.949218-6.175782-5.28125 1.871094-8.046876 7.667969-6.175782 12.949219l.144532.414063c1.476562 4.160156 5.386718 6.757812 9.5625 6.757812 1.125 0 2.269531-.1875 3.390624-.585938 5.28125-1.871093 8.042969-7.667968 6.171876-12.949218zm0 0"/><path d="m419.121094 79.082031-.144532-.414062c-1.871093-5.28125-7.667968-8.042969-12.949218-6.171875s-8.046875 7.667968-6.175782 12.949218l.144532.410157c1.476562 4.160156 5.386718 6.761719 9.5625 6.761719 1.125 0 2.269531-.191407 3.386718-.585938 5.28125-1.871094 8.046876-7.667969 6.175782-12.949219zm0 0"/></svg>
