
<svg height="511pt" viewBox="1 -122 511.99903 511" width="511pt" xmlns="http://www.w3.org/2000/svg"><path d="m431.023438 211.386719c0 26.761719-21.695313 48.457031-48.457032 48.457031-26.761718 0-48.457031-21.695312-48.457031-48.457031s21.695313-48.453125 48.457031-48.453125c26.761719 0 48.457032 21.691406 48.457032 48.453125zm0 0" fill="#787680"/><path d="m421.367188 30.734375h-124.40625v180.855469h37.152343c0-.066406-.003906-.132813-.003906-.203125 0-26.761719 21.695313-48.453125 48.457031-48.453125 26.761719 0 48.457032 21.691406 48.457032 48.453125 0 .070312-.007813.136719-.007813.203125h52.246094v-79.347656l-21.277344-12.5625v-48.328126zm0 0" fill="#ffe477"/><path d="m356.355469 119.679688v-59.773438h79.746093l23.960938 23.960938v35.8125zm0 0" fill="#ffb655"/><path d="m327.617188 119.679688v-59.773438h79.75l23.960937 23.960938v35.8125zm0 0" fill="#787680"/><path d="m151.289062 211.386719c0 26.761719-21.691406 48.457031-48.453124 48.457031-26.761719 0-48.457032-21.695312-48.457032-48.457031s21.695313-48.453125 48.457032-48.453125c26.761718 0 48.453124 21.691406 48.453124 48.453125zm0 0" fill="#787680"/><path d="m125.910156 211.386719c0 12.746093-10.332031 23.078125-23.074218 23.078125-12.746094 0-23.078126-10.332032-23.078126-23.078125 0-12.742188 10.332032-23.074219 23.078126-23.074219 12.742187 0 23.074218 10.332031 23.074218 23.074219zm0 0" fill="#e0e0e2"/><path d="m405.640625 211.386719c0 12.746093-10.332031 23.078125-23.074219 23.078125-12.746094 0-23.074218-10.332032-23.074218-23.078125 0-12.742188 10.328124-23.074219 23.074218-23.074219 12.742188 0 23.074219 10.332031 23.074219 23.074219zm0 0" fill="#e0e0e2"/><path d="m7.183594 7.683594v203.90625h47.199218c0-.066406-.003906-.132813-.003906-.203125 0-26.761719 21.695313-48.453125 48.457032-48.453125 26.761718 0 48.453124 21.691406 48.453124 48.453125 0 .070312-.003906.136719-.003906.203125h145.675782v-203.90625zm0 0" fill="#57a4ff"/><path d="m452.332031 149.5h30.929688v35.824219h-30.929688zm0 0" fill="#fff5cc"/><path d="m452.332031 149.5h30.929688v35.824219h-30.929688zm0 0" fill="#ffc477"/><path d="m362.847656 211.386719c0-21.757813 14.339844-40.164063 34.085938-46.289063-4.539063-1.40625-9.363282-2.164062-14.367188-2.164062-26.761718 0-48.457031 21.691406-48.457031 48.453125s21.695313 48.457031 48.457031 48.457031c5.003906 0 9.828125-.757812 14.367188-2.164062-19.746094-6.125-34.085938-24.53125-34.085938-46.292969zm0 0" fill="#57565c"/><path d="m296.960938 30.734375h28.738281v180.859375h-28.738281zm0 0" fill="#ffb655"/><path d="m411.304688 162.933594c-5.003907 0-9.828126.757812-14.371094 2.164062 19.746094 6.125 34.089844 24.53125 34.089844 46.289063 0 .070312-.007813.136719-.007813.203125h28.738281c0-.066406.003906-.132813.003906-.203125 0-26.761719-21.691406-48.453125-48.453124-48.453125zm0 0" fill="#ffb655"/><path d="m327.617188 59.90625h28.738281v59.773438h-28.738281zm0 0" fill="#57565c"/><path d="m83.113281 211.386719c0-21.757813 14.34375-40.164063 34.089844-46.289063-4.539063-1.40625-9.367187-2.164062-14.367187-2.164062-26.761719 0-48.457032 21.691406-48.457032 48.453125s21.695313 48.457031 48.457032 48.457031c5 0 9.828124-.757812 14.367187-2.164062-19.746094-6.125-34.089844-24.53125-34.089844-46.292969zm0 0" fill="#57565c"/><path d="m108.496094 211.386719c0-7.308594 3.402344-13.828125 8.707031-18.054688-3.941406-3.140625-8.9375-5.019531-14.367187-5.019531-12.746094 0-23.074219 10.332031-23.074219 23.074219 0 12.742187 10.328125 23.074219 23.074219 23.074219 5.429687 0 10.425781-1.875 14.367187-5.019532-5.304687-4.226562-8.707031-10.742187-8.707031-18.054687zm0 0" fill="#c6c5ca"/><path d="m388.226562 211.386719c0-7.308594 3.402344-13.824219 8.707032-18.054688-3.941406-3.140625-8.933594-5.019531-14.367188-5.019531-12.746094 0-23.074218 10.332031-23.074218 23.074219 0 12.742187 10.328124 23.074219 23.074218 23.074219 5.433594 0 10.425782-1.875 14.367188-5.019532-5.304688-4.226562-8.707032-10.742187-8.707032-18.054687zm0 0" fill="#c6c5ca"/><path d="m7.183594 7.683594h28.738281v203.90625h-28.738281zm0 0" fill="#006df0"/><path d="m131.570312 162.933594c-5.003906 0-9.828124.757812-14.367187 2.164062 19.746094 6.125 34.085937 24.53125 34.085937 46.289063 0 .070312-.003906.136719-.003906.203125h28.738282c0-.066406.003906-.132813.003906-.203125 0-26.761719-21.695313-48.453125-48.457032-48.453125zm0 0" fill="#006df0"/><path d="m481.070312 149.5h30.929688v35.824219h-30.929688zm0 0" fill="#ffc477"/><path d="m320.433594 52.722656v74.140625h118.078125v-45.972656l-28.167969-28.167969zm103.710937 59.773438h-89.34375v-45.402344h69.589844l19.75 19.75v25.652344zm0 0"/><path d="m102.835938 155.746094c-30.679688 0-55.640626 24.960937-55.640626 55.640625 0 30.679687 24.960938 55.640625 55.640626 55.640625 30.675781 0 55.636718-24.960938 55.636718-55.640625 0-30.679688-24.957031-55.640625-55.636718-55.640625zm0 96.914062c-22.757813 0-41.273438-18.515625-41.273438-41.273437 0-22.757813 18.515625-41.269531 41.273438-41.269531 22.757812 0 41.269531 18.511718 41.269531 41.269531 0 22.757812-18.511719 41.273437-41.269531 41.273437zm0 0"/><path d="m102.835938 181.128906c-16.6875 0-30.261719 13.574219-30.261719 30.257813 0 16.6875 13.574219 30.261719 30.261719 30.261719 16.683593 0 30.257812-13.574219 30.257812-30.261719 0-16.683594-13.574219-30.257813-30.257812-30.257813zm0 46.148438c-8.765626 0-15.890626-7.125-15.890626-15.890625 0-8.761719 7.125-15.890625 15.890626-15.890625 8.757812 0 15.886718 7.128906 15.886718 15.890625 0 8.765625-7.125 15.890625-15.886718 15.890625zm0 0"/><path d="m382.566406 181.128906c-16.683594 0-30.257812 13.574219-30.257812 30.257813 0 16.6875 13.574218 30.261719 30.257812 30.261719s30.257813-13.574219 30.257813-30.261719c0-16.683594-13.574219-30.257813-30.257813-30.257813zm0 46.148438c-8.761718 0-15.890625-7.125-15.890625-15.890625 0-8.761719 7.128907-15.890625 15.890625-15.890625 8.761719 0 15.890625 7.128906 15.890625 15.890625 0 8.765625-7.128906 15.890625-15.890625 15.890625zm0 0"/><path d="m382.566406 155.746094c-30.679687 0-55.640625 24.960937-55.640625 55.640625 0 30.679687 24.960938 55.640625 55.640625 55.640625 30.679688 0 55.640625-24.960938 55.640625-55.640625 0-30.679688-24.960937-55.640625-55.640625-55.640625zm0 96.914062c-22.757812 0-41.273437-18.515625-41.273437-41.273437 0-22.757813 18.515625-41.269531 41.273437-41.269531 22.757813 0 41.273438 18.511718 41.273438 41.269531 0 22.757812-18.515625 41.273437-41.273438 41.273437zm0 0"/><path d="m0 218.777344h35.226562v-14.371094h-20.859374v-20.421875h25.867187v-14.367187h-25.867187v-154.75h275.410156v189.539062h-119.332032v14.371094h133.703126v-218.277344h-304.148438zm0 0"/><path d="m469.167969 115.578125v-47.203125l-44.828125-44.824219h-108.21875v14.367188h102.269531l36.410156 36.410156v49.453125l21.277344 12.5625v5.972656h-30.929687v50.191406h30.929687v11.898438h-25.902344v14.371094h40.273438v-90.636719zm-9.652344 62.5625v-21.453125h16.5625v21.453125zm0 0"/><path d="m89.621094 81.246094v-14.367188h-45.566406v76.765625h14.367187v-31.199219h31.199219v-14.367187h-31.199219v-16.832031zm0 0"/><path d="m146.445312 80-13.121093-13.121094h-32.445313v76.765625h14.367188v-31.199219h12.125l4.703125 4.707032v26.492187h14.371093v-32.445312l-5.9375-5.9375 5.9375-5.9375zm-31.199218 18.078125v-16.832031h12.125l4.703125 4.707031v7.417969l-4.703125 4.707031zm0 0"/><path d="m203.269531 81.246094v-14.367188h-45.566406v76.765625h45.566406v-14.371093h-31.199219v-16.828126h31.199219v-14.367187h-31.199219v-16.832031zm0 0"/><path d="m260.09375 81.246094v-14.367188h-45.566406v76.765625h45.566406v-14.371093h-31.199219v-16.828126h31.199219v-14.367187h-31.199219v-16.832031zm0 0"/><g fill="#fff"><path d="m272.277344 40.601562h-50.042969v-14.367187h50.042969zm-59.621094 0h-14.367188v-14.367187h14.367188zm-23.945312 0h-14.371094v-14.367187h14.371094zm0 0"/><path d="m416.121094 102.871094h-25.402344v-14.367188h25.402344zm-34.980469 0h-14.367187v-14.367188h14.367187zm-23.945313 0h-14.371093v-14.367188h14.371093zm0 0"/></g></svg>
