<svg version="1.1" id="Layer_1" xmlns="http://www.w3.org/2000/svg" xmlns:xlink="http://www.w3.org/1999/xlink" x="0px" y="0px"
	 viewBox="0 0 490 490" style="enable-background:new 0 0 490 490;" xml:space="preserve">
<g>
	<g id="XMLID_29_">
		<g>
			<path style="fill:#FFD248;" d="M100,387.5c-44.199,0-80-35.801-80-80h160C180,351.699,144.199,387.5,100,387.5z"/>
			<path style="fill:#FFD248;" d="M390,387.5c-44.199,0-80-35.801-80-80h160C470,351.699,434.199,387.5,390,387.5z"/>
			<path style="fill:#704324;" d="M320,452.5v25H170v-25c0-5.498,4.502-10,10-10h45h40h45C315.498,442.5,320,447.002,320,452.5z"/>
			<path style="fill:#A26234;" d="M245,12.5c22.1,0,40,17.9,40,40c0,14.805-8.096,27.5-20,34.502V122.5h215v30H265v290h-40v-290H10
				v-30h215V87.002C213.101,80,205,67.305,205,52.5C205,30.4,222.9,12.5,245,12.5z"/>
		</g>
		<g>
			<path style="fill:#231F20;" d="M480,112.5H275V92.338c12.622-9.474,20-23.983,20-39.838c0-27.57-22.43-50-50-50s-50,22.43-50,50
				c0,15.852,7.378,30.361,20,39.837V112.5H10c-5.523,0-10,4.478-10,10v30c0,5.523,4.477,10,10,10h75.841l-47.903,135H20
				c-5.523,0-10,4.478-10,10c0,49.626,40.374,90,90,90s90-40.374,90-90c0-5.522-4.477-10-10-10h-22.718l-43.548-135H215v270h-35
				c-11.028,0-20,8.972-20,20v25c0,5.522,4.477,10,10,10h150c5.523,0,10-4.478,10-10v-25c0-11.028-8.972-20-20-20h-35v-270h100.841
				l-47.903,135H310c-5.523,0-10,4.478-10,10c0,49.626,40.374,90,90,90s90-40.374,90-90c0-5.522-4.477-10-10-10h-22.718l-43.548-135
				H480c5.523,0,10-4.477,10-10v-30C490,116.978,485.523,112.5,480,112.5z M100,377.5c-21.473,0-40.706-9.73-53.557-25H125v-20
				H34.619c-1.831-4.773-3.159-9.794-3.907-15h138.576C164.421,351.378,135.203,377.5,100,377.5z M59.159,297.5l40.39-113.825
				L136.267,297.5H59.159z M390,377.5c-21.473,0-40.706-9.73-53.557-25H415v-20h-90.381c-1.832-4.773-3.159-9.794-3.907-15h138.576
				C454.421,351.378,425.203,377.5,390,377.5z M349.159,297.5l40.39-113.825L426.267,297.5H349.159z M310,467.5H180v-15h130V467.5z
				 M470,142.5H265c-5.523,0-10,4.477-10,10v280h-20v-280c0-5.523-4.477-10-10-10H20v-10h205c5.523,0,10-4.477,10-10V87.002
				c0-3.543-1.875-6.822-4.929-8.619C220.634,72.83,215,63.154,215,52.5c0-16.542,13.458-30,30-30s30,13.458,30,30
				c0,10.656-5.634,20.332-15.07,25.883c-3.055,1.796-4.93,5.075-4.93,8.619V122.5c0,5.523,4.477,10,10,10h205V142.5z"/>
			<rect x="235" y="42.5" style="fill:#231F20;" width="20" height="20"/>
		</g>
	</g>
</g>
<g>
</g>
<g>
</g>
<g>
</g>
<g>
</g>
<g>
</g>
<g>
</g>
<g>
</g>
<g>
</g>
<g>
</g>
<g>
</g>
<g>
</g>
<g>
</g>
<g>
</g>
<g>
</g>
<g>
</g>
</svg>
