<svg version="1.1" id="Capa_1" xmlns="http://www.w3.org/2000/svg" xmlns:xlink="http://www.w3.org/1999/xlink" x="0px" y="0px"
	 viewBox="0 0 512 512" style="enable-background:new 0 0 512 512;" xml:space="preserve">
<path style="fill:#4A8CFF;" d="M443.818,489.188H159.937c-16.799,0-30.416-13.617-30.416-30.416V53.228
	c0-16.799,13.617-30.416,30.416-30.416h283.881c16.799,0,30.416,13.617,30.416,30.416v405.545
	C474.234,475.571,460.617,489.188,443.818,489.188z"/>
<g>
	<rect x="129.521" y="103.921" style="fill:#A6EDEB;" width="344.713" height="50.693"/>
	<rect x="129.521" y="357.386" style="fill:#A6EDEB;" width="344.713" height="50.693"/>
</g>
<g>
	<path style="fill:#2151FF;" d="M170.075,205.307h-40.554v101.386h40.554c27.952,0,50.693-22.741,50.693-50.693
		S198.027,205.307,170.075,205.307z"/>
	<path style="fill:#2151FF;" d="M365.751,489.188h78.067c1.027,0,2.041-0.053,3.042-0.152V22.964
		c-1.001-0.099-2.015-0.152-3.042-0.152h-78.067V489.188z"/>
</g>
<path style="fill:#FDD844;" d="M170.075,286.416h-55.762c-8.399,0-15.208-6.809-15.208-15.208v-30.416
	c0-8.399,6.809-15.208,15.208-15.208h55.762c16.799,0,30.416,13.617,30.416,30.416l0,0
	C200.491,272.799,186.874,286.416,170.075,286.416z"/>
<polygon style="fill:#F4511E;" points="58.55,85.671 129.521,85.671 129.521,136.364 58.55,136.364 73.758,111.018 "/>
<rect x="109.244" y="85.671" style="fill:#D84315;" width="20.277" height="50.693"/>
<path style="fill:#FDAB08;" d="M170.075,266.139h-55.762c-8.399,0-15.208-6.809-15.208-15.208v20.277
	c0,8.399,6.809,15.208,15.208,15.208h55.762c16.799,0,30.416-13.617,30.416-30.416l0,0c0-3.556-0.616-6.967-1.738-10.139
	C194.577,257.674,183.317,266.139,170.075,266.139z"/>
<path style="fill:#2151FF;" d="M443.818,468.911H159.937c-16.799,0-30.416-13.617-30.416-30.416v20.277
	c0,16.799,13.617,30.416,30.416,30.416h283.881c16.799,0,30.416-13.617,30.416-30.416v-20.277
	C474.234,455.294,460.617,468.911,443.818,468.911z"/>
<g>
	<rect x="365.751" y="357.386" style="fill:#56D1C8;" width="81.109" height="50.693"/>
	<rect x="365.751" y="103.921" style="fill:#56D1C8;" width="81.109" height="50.693"/>
</g>
<rect x="386.028" y="7.604" style="fill:#FDD844;" width="40.554" height="496.792"/>
<rect x="386.028" y="484.119" style="fill:#FDAB08;" width="40.554" height="20.277"/>
<path d="M378.424,512h55.762V0h-55.762V512z M393.632,15.208h25.347v481.584h-25.347V15.208z"/>
<path d="M121.917,53.228v147.01h15.208V53.228c0-12.578,10.234-22.812,22.812-22.812h200.745V15.208H159.937
	C138.972,15.208,121.917,32.263,121.917,53.228z"/>
<path d="M137.125,458.772v-147.01h-15.208v147.01c0,20.965,17.055,38.02,38.02,38.02h200.745v-15.208H159.937
	C147.359,481.584,137.125,471.35,137.125,458.772z"/>
<path d="M453.945,16.585l-4.034,14.663c9.844,2.707,16.718,11.746,16.718,21.98v405.545c0,10.234-6.874,19.273-16.718,21.98
	l4.034,14.664c16.422-4.517,27.892-19.585,27.892-36.643V53.228C481.838,36.171,470.368,21.101,453.945,16.585z"/>
<rect x="193.394" y="96.317" width="162.218" height="15.208"/>
<rect x="162.978" y="96.317" width="15.208" height="15.208"/>
<rect x="162.978" y="147.01" width="15.208" height="15.208"/>
<rect x="193.394" y="147.01" width="15.208" height="15.208"/>
<rect x="223.81" y="147.01" width="131.802" height="15.208"/>
<rect x="193.394" y="349.782" width="15.208" height="15.208"/>
<rect x="162.978" y="349.782" width="15.208" height="15.208"/>
<rect x="223.81" y="349.782" width="131.802" height="15.208"/>
<rect x="162.978" y="400.475" width="15.208" height="15.208"/>
<rect x="193.394" y="400.475" width="162.218" height="15.208"/>
<path d="M208.095,256c0-20.965-17.055-38.02-38.02-38.02h-55.762c-12.578,0-22.812,10.234-22.812,22.812v30.416
	c0,12.578,10.234,22.812,22.812,22.812h55.762C191.04,294.02,208.095,276.965,208.095,256z M106.709,271.208v-30.416
	c0-4.193,3.411-7.604,7.604-7.604h55.762c12.578,0,22.812,10.234,22.812,22.812c0,12.578-10.234,22.812-22.812,22.812h-55.762
	C110.12,278.812,106.709,275.401,106.709,271.208z"/>
<polygon points="104.174,143.968 104.174,128.76 71.98,128.76 82.626,111.018 71.98,93.275 104.174,93.275 104.174,78.067 
	45.121,78.067 64.891,111.018 45.121,143.968 "/>
<rect x="305.933" y="248.396" width="15.208" height="15.208"/>
<rect x="245.101" y="248.396" width="15.208" height="15.208"/>
<rect x="275.517" y="248.396" width="15.208" height="15.208"/>
<rect x="30.162" y="350.796" width="15.208" height="15.208"/>
<rect x="60.578" y="350.796" width="15.208" height="15.208"/>
<rect x="90.994" y="350.796" width="15.208" height="15.208"/>
<rect x="60.578" y="401.489" width="15.208" height="15.208"/>
<rect x="30.162" y="401.489" width="15.208" height="15.208"/>
<rect x="90.994" y="401.489" width="15.208" height="15.208"/>
<g>
	<path style="fill:#FFFFFF;" d="M230.907,466.376h-15.208v-15.208h15.208V466.376z M200.491,466.376h-48.158v-32.951h15.208v17.743
		h32.95V466.376z"/>
	<path style="fill:#FFFFFF;" d="M335.335,60.832h-60.832V45.624h60.832V60.832z M259.295,60.832h-15.208V45.624h15.208V60.832z"/>
	<path style="fill:#FFFFFF;" d="M174.131,263.604h-15.208v-15.208h15.208V263.604z M143.715,263.604h-15.208v-15.208h15.208V263.604
		z"/>
	<path style="fill:#FFFFFF;" d="M363.216,281.347h-15.208v-15.208h15.208V281.347z M363.216,250.931h-15.208v-60.832h15.208V250.931
		z"/>
</g>
<g>
</g>
<g>
</g>
<g>
</g>
<g>
</g>
<g>
</g>
<g>
</g>
<g>
</g>
<g>
</g>
<g>
</g>
<g>
</g>
<g>
</g>
<g>
</g>
<g>
</g>
<g>
</g>
<g>
</g>
</svg>
