
<svg height="512pt" viewBox="0 0 512.00001 512" width="512pt" xmlns="http://www.w3.org/2000/svg"><path d="m47.414062 464.585938 120.488282-304.769532 184.28125 184.28125zm0 0" fill="#ff6a47"/><path d="m62.566406 426.261719-15.152344 38.324219 304.769532-120.488282-23.175782-23.175781zm0 0" fill="#fd3501"/><path d="m92.917969 349.484375 28.777343 85.734375 60.933594-24.089844-52.382812-156.058594zm0 0" fill="#eee"/><path d="m352.183594 344.097656-184.28125-184.28125-.328125.835938 75.988281 226.386718zm0 0" fill="#eee"/><path d="m486.773438 25.226562-11.238282 33.140626 20.929688 28.046874-34.992188-.449218-20.203125 28.570312-10.390625-33.414062-33.414062-10.390625 28.570312-20.203125-.445312-34.992188 28.042968 20.929688zm0 0" fill="#feef8f"/><path d="m346.113281 37.585938c0 16.609374-13.464843 30.070312-30.070312 30.070312-16.609375 0-30.070313-13.460938-30.070313-30.070312 0-16.605469 13.460938-30.066407 30.070313-30.066407 16.605469 0 30.070312 13.460938 30.070312 30.066407zm0 0" fill="#a8e1f8"/><path d="m504.484375 195.957031c0 16.609375-13.464844 30.070313-30.070313 30.070313-16.609374 0-30.070312-13.460938-30.070312-30.070313 0-16.605469 13.460938-30.070312 30.070312-30.070312 16.605469 0 30.070313 13.464843 30.070313 30.070312zm0 0" fill="#a8e1f8"/><path d="m121.695312 435.21875 60.933594-24.089844-9.582031-28.546875-60.933594 24.089844zm0 0" fill="#e0e0e0"/><path d="m243.5625 387.039062 108.621094-42.941406-23.175782-23.175781-95.027343 37.570313zm0 0" fill="#e0e0e0"/><path d="m155.855469 190.292969 165.851562 165.851562 30.476563-12.046875-184.28125-184.28125zm0 0" fill="#feef8f"/><path d="m298.53125 332.972656 23.175781 23.171875 30.476563-12.046875-23.175782-23.175781zm0 0" fill="#fee95d"/><path d="m316.042969 37.585938c-11.128907 0-20.839844-6.046876-26.039063-15.035157-2.558594 4.425781-4.03125 9.558594-4.03125 15.035157 0 16.609374 13.460938 30.070312 30.070313 30.070312 16.605469 0 30.070312-13.460938 30.070312-30.070312 0-5.476563-1.472656-10.609376-4.035156-15.035157-5.199219 8.988281-14.90625 15.035157-26.035156 15.035157zm0 0" fill="#75d2f5"/><path d="m474.414062 195.957031c-11.128906 0-20.839843-6.050781-26.039062-15.035156-2.5625 4.425781-4.03125 9.558594-4.03125 15.035156 0 16.609375 13.460938 30.070313 30.070312 30.070313 16.605469 0 30.070313-13.460938 30.070313-30.070313 0-5.476562-1.472656-10.609375-4.035156-15.035156-5.199219 8.984375-14.90625 15.035156-26.035157 15.035156zm0 0" fill="#75d2f5"/><path d="m201.433594 379.644531-4.785156-14.253906 14.253906-4.785156 4.785156 14.253906zm-9.570313-28.507812-4.78125-14.253907 14.253907-4.785156 4.78125 14.257813zm-9.566406-28.507813-21.960937-65.417968 14.253906-4.785157 21.960937 65.421875zm0 0" fill="#fff"/><path d="m140.351562 403.292969-4.785156-14.25 14.253906-4.785157 4.78125 14.253907zm-9.570312-28.503907-10.617188-31.636718 14.253907-4.785156 10.617187 31.636718zm0 0" fill="#fff"/><path d="m424.875 87.125 13.734375 44.1875 26.71875-37.78125 46.269531.59375-27.675781-37.085938 14.863281-43.824218-43.824218 14.859375-37.085938-27.671875.589844 46.269531-37.78125 26.71875zm8.425781-56.453125 19.003907 14.183594 22.457031-7.617188-7.617188 22.457031 14.183594 19.003907-23.710937-.300781-13.691407 19.359374-7.039062-22.644531-22.644531-7.039062 19.359374-13.691407zm0 0"/><path d="m294.898438 206.46875 10.632812-10.632812 10.632812 10.632812-10.632812 10.628906zm0 0"/><path d="m273.636719 227.730469 10.632812-10.632813 10.628907 10.632813-10.628907 10.628906zm0 0"/><path d="m316.160156 185.203125 77.757813-77.753906 10.628906 10.632812-77.753906 77.753907zm0 0"/><path d="m238.554688 192.648438 10.632812-10.632813 10.628906 10.632813-10.628906 10.628906zm0 0"/><path d="m259.816406 171.386719 10.632813-10.632813 10.632812 10.632813-10.632812 10.628906zm0 0"/><path d="m308.582031 74.429688c-.496093 27.707031-10.503906 54.558593-28.3125 75.835937l11.527344 9.648437c20.078125-23.980468 31.328125-54.269531 31.820313-85.507812 17.105468-3.511719 30.011718-18.6875 30.011718-36.820312 0-20.722657-16.859375-37.585938-37.585937-37.585938-20.726563 0-37.589844 16.863281-37.589844 37.585938 0 18.175781 12.964844 33.375 30.128906 36.84375zm7.460938-59.394532c12.433593 0 22.550781 10.117188 22.550781 22.550782 0 12.4375-10.117188 22.554687-22.550781 22.554687-12.4375 0-22.554688-10.117187-22.554688-22.554687 0-12.433594 10.117188-22.550782 22.554688-22.550782zm0 0"/><path d="m365.597656 346.878906-126.433594-126.429687-10.628906 10.628906 110.234375 110.238281-15.238281 6.023438-38.328125-38.328125-10.628906 10.632812 33.71875 33.71875-60.125 23.769531-42.386719-126.28125 58.160156 58.160157 10.632813-10.632813-109.914063-109.910156 6.023438-15.238281 47.21875 47.21875 10.632812-10.632813-63.414062-63.414062-60.207032 152.296875 13.980469 5.527343 10.773438-27.25 28.539062 85.019532 14.253907-4.785156-34.214844-101.929688 20.390625-51.570312 23.273437 23.273437 52.257813 155.6875-46.933594 18.554687-9.988281-29.761718-14.253906 4.785156 10.242187 30.511719-46.929687 18.554687-25.382813-75.621094 12.445313-31.488281-13.980469-5.527343-58.390625 147.695312-40.996094 40.996094 10.628906 10.628906 40.996094-40.996094zm-253.296875 83.96875-50.566406 19.992188-.574219-.574219 31.183594-78.875zm0 0"/><path d="m195.257812 0h15.035157v15.035156h-15.035157zm0 0"/><path d="m195.257812 50.117188h15.035157v15.035156h-15.035157zm0 0"/><path d="m170.199219 25.058594h15.035156v15.035156h-15.035156zm0 0"/><path d="m220.316406 25.058594h15.035156v15.035156h-15.035156zm0 0"/><path d="m198.460938 152.554688 10.632812-10.632813 10.632812 10.632813-10.632812 10.628906zm0 0"/><path d="m234.097656 138.183594c11.355469-11.359375 17.609375-26.460938 17.609375-42.527344 0-14.777344-5.417969-28.988281-15.253906-40.019531l-11.21875 10.007812c7.375 8.273438 11.441406 18.929688 11.441406 30.007813 0 12.050781-4.691406 23.378906-13.210937 31.898437l-3.738282 3.738281 10.632813 10.628907zm0 0"/><path d="m329.980469 241.550781 10.632812-10.632812 10.628907 10.632812-10.628907 10.628907zm0 0"/><path d="m308.71875 262.8125 10.632812-10.632812 10.628907 10.632812-10.628907 10.628906zm0 0"/><path d="m512 195.957031c0-20.726562-16.863281-37.585937-37.585938-37.585937-18.132812 0-33.308593 12.90625-36.824218 30.011718-31.246094.5-61.53125 11.75-85.503906 31.820313l9.648437 11.527344c21.273437-17.808594 48.109375-27.804688 75.835937-28.308594 3.472657 17.160156 18.671876 30.125 36.84375 30.125 20.722657 0 37.585938-16.863281 37.585938-37.589844zm-60.140625 0c0-12.433593 10.117187-22.550781 22.554687-22.550781 12.433594 0 22.550782 10.117188 22.550782 22.550781 0 12.4375-10.117188 22.554688-22.550782 22.554688-12.4375 0-22.554687-10.117188-22.554687-22.554688zm0 0"/><path d="m496.964844 301.707031h15.035156v15.035157h-15.035156zm0 0"/><path d="m446.847656 301.707031h15.035156v15.035157h-15.035156zm0 0"/><path d="m471.90625 326.765625h15.035156v15.035156h-15.035156zm0 0"/><path d="m471.90625 276.648438h15.035156v15.035156h-15.035156zm0 0"/><path d="m416.34375 260.292969c-16.066406 0-31.167969 6.253906-42.527344 17.609375l-3.738281 3.738281 10.632813 10.632813 3.738281-3.738282c8.515625-8.519531 19.84375-13.210937 31.894531-13.210937 11.078125 0 21.738281 4.066406 30.011719 11.441406l10.003906-11.21875c-11.027344-9.835937-25.238281-15.253906-40.015625-15.253906zm0 0"/><path d="m348.8125 302.90625 10.628906-10.632812 10.632813 10.632812-10.632813 10.628906zm0 0"/><path d="m445.113281 380.179688c1.964844 4.417968 2.277344 9.210937.882813 13.496093-1.300782 4-3.960938 7.070313-7.496094 8.640625-3.53125 1.570313-7.589844 1.492188-11.4375-.222656-4.113281-1.835938-7.460938-5.28125-9.425781-9.695312l-13.738281 6.109374c3.929687 8.835938.964843 18.765626-6.613282 22.132813-7.570312 3.371094-16.933594-1.078125-20.863281-9.917969l-13.738281 6.109375c1.964844 4.417969 2.277344 9.210938.882812 13.496094-1.300781 4-3.960937 7.070313-7.492187 8.640625-7.578125 3.371094-16.9375-1.082031-20.867188-9.917969l-13.738281 6.109375c5.527344 12.425782 17.339844 19.957032 29.328125 19.957032 3.84375 0 7.707031-.773438 11.386719-2.410157 7.476562-3.324219 13.046875-9.621093 15.683594-17.726562.164062-.503907.3125-1.011719.453124-1.523438 7.785157 3.9375 16.886719 4.566407 25.078126.925781 8.191406-3.644531 13.820312-10.820312 16.109374-19.238281.472657.238281.949219.464844 1.433594.679688 7.789063 3.476562 16.195313 3.554687 23.671875.230469 7.476563-3.324219 13.046875-9.621094 15.683594-17.726563 2.542969-7.824219 2.03125-16.4375-1.445313-24.253906zm0 0"/><path d="m76.84375 190.53125 6.109375-13.738281c-8.839844-3.929688-13.289063-13.289063-9.921875-20.867188 1.570312-3.53125 4.640625-6.191406 8.644531-7.492187 4.285157-1.394532 9.078125-1.082032 13.492188.882812l6.109375-13.738281c-8.835938-3.929687-13.285156-13.292969-9.917969-20.867187 3.367187-7.574219 13.296875-10.539063 22.136719-6.609376l6.109375-13.738281c-4.417969-1.964843-7.859375-5.3125-9.695313-9.429687-1.714844-3.84375-1.796875-7.902344-.226562-11.4375 1.574218-3.53125 4.640625-6.191406 8.644531-7.492188 4.285156-1.394531 9.078125-1.082031 13.492187.882813l6.109376-13.738281c-7.8125-3.476563-16.425782-3.988282-24.25-1.445313-8.109376 2.636719-14.40625 8.207031-17.730469 15.683594-3.324219 7.476562-3.242188 15.886719.230469 23.671875.214843.484375.441406.960937.679687 1.433594-8.417969 2.289062-15.597656 7.917968-19.238281 16.109374-3.640625 8.191407-3.015625 17.289063.925781 25.078126-.511719.136718-1.019531.289062-1.523437.453124-8.109376 2.636719-14.40625 8.207032-17.730469 15.683594-6.734375 15.152344 1.136719 33.417969 17.550781 40.714844zm0 0"/></svg>
