<svg height="512pt" viewBox="0 0 512 512.001" width="512pt" xmlns="http://www.w3.org/2000/svg"><path d="m462 103s-71-79-128 11c-23.253906 36.71875-28 54-37 57l-33 57 37 10 113-119 56 3zm0 0" fill="#fabe50"/><path d="m262.425781 502h-50v-40h40zm0 0" fill="#81b3e6"/><path d="m162.425781 352h70l20 110h-40zm0 0" fill="#fad296"/><path d="m451.425781 502h-50v-40h40zm0 0" fill="#81b3e6"/><path d="m361.425781 322h60l20 140h-40zm0 0" fill="#fad296"/><path d="m138 248s-21.964844-22.117188-46-29c-31.421875-9-82 8-82 53 0 37 24.5 115.5 9 131 20.5-5.5 44-6 44-46s-15-98 49-73c5-22 26-36 26-36zm0 0" fill="#fabe50"/><path d="m362.425781 502h-50v-40h40zm0 0" fill="#c8e7f9"/><path d="m162.425781 462 10 40h-50v-40zm0 0" fill="#c8e7f9"/><path d="m382 127s-18 31-39 62-50.574219 33-50.574219 33l-110 10c-44.183593 0-80 35.816406-80 80v20c0 11.425781 20 97.5 20 97.5l-10 32.5h50l20-61.863281c23.117188-11.488281 40.597657-22.621094 47.164063-48.136719 39.117187 12.414062 47.886718 14.164062 81.058594 6.019531l12.628906 27.515625-20.851563 76.464844h50l22-76.65625c25.453125-12.25 48-49.792969 48-73.34375v-34s-9.425781-51 10.574219-71l16 6 19 32 13.078125-2.308594c11.652344-2.054687 19.554687-13.003906 17.835937-24.710937l-12.914062-87.980469 16-34s-25-10-42 7c0 0-52-12-78 24zm0 0" fill="#f0e6d2"/><path d="m274.03125 274.726562c7.148438-10.007812 4.78125-23.921874-5.277344-31-3.863281-2.71875-5.007812-7.9375-2.648437-12.027343l26.070312-45.152344c14.417969-24.96875 9.300781-56.632813-12.242187-75.796875l-174.503906-100.75c-11.046876 19.132812-4.492188 43.59375 14.640624 54.640625l-8.660156-5c-11.046875 19.132813-4.492187 43.59375 14.640625 54.640625l-8.660156-5c-11.046875 19.132812-4.492187 43.597656 14.640625 54.640625l51.996094 30.019531c-11.410156 21.320313-3.917969 47.996094 17.175781 60.171875l43.175781 26.601563c9.917969 6.109375 22.878906 3.496094 29.652344-5.988282zm0 0" fill="#c8e7f9"/><path d="m511.304688 92.335938c-1.011719-2.5625-3.03125-4.597657-5.589844-5.621094-1.101563-.441406-23.808594-9.25-43.785156 2.292968-12.4375-11.066406-38.988282-30.441406-70.136719-27.832031-25.351563 2.128907-47.636719 18.101563-66.242188 47.472657-7.503906 11.851562-13.179687 21.828124-17.578125 29.769531-3.417968-13.246094-10.640625-25.578125-21.394531-35.140625-.503906-.449219-176.148437-101.9375-176.148437-101.9375-2.296876-1.324219-5.027344-1.6875-7.589844-1s-4.746094 2.363281-6.070313 4.660156c-6.679687 11.566406-8.453125 25.039062-4.996093 37.941406 1.679687 6.269532 4.5 12.042969 8.28125 17.082032-7.121094 16.664062-4.476563 35.609374 5.992187 49.613281-9.8125 22.925781-1.140625 50.171875 20.984375 62.945312l44.339844 25.597657c-2.6875 8.175781-3.347656 16.65625-2.183594 24.8125-11.394531 1.6875-22.09375 5.515624-31.683594 11.066406-9.074218-7.683594-25.214844-19.652344-42.75-24.671875-22.75-6.515625-50.929687-1.171875-70.125 13.296875-16.113281 12.148437-24.628906 29.199218-24.628906 49.316406 0 14.667969 3.414062 34.269531 7.027344 55.023438 2.839844 16.300781 5.773437 33.160156 6.761718 46.660156 1.367188 18.710937-1.726562 22.109375-1.859374 22.246094-3.203126 3.199218-3.851563 8.152343-1.589844 12.070312 1.820312 3.148438 5.152344 5 8.660156 5 3.046875 0 6.351562-1.300781 9.300781-2 18.863281-4.46875 44.699219-10.589844 44.699219-54 0-6.613281-.390625-13.679688-.769531-20.515625-1.003907-18.121094-2.257813-40.671875 5.816406-46.519531 3.3125-2.398438 9.296875-2.625 17.324219-.773438-1.910156 7.289063-2.945313 14.929688-2.945313 22.808594v20c0 11.363281 15.21875 77.984375 19.648438 97.132812l-9.207031 29.925782c-.933594 3.035156-.371094 6.332031 1.511718 8.882812 1.886719 2.554688 4.871094 4.058594 8.046875 4.058594v30c0 5.523438 4.476563 10 10 10h50c3.078125 0 5.984375-1.417969 7.878907-3.84375 1.898437-2.429688 2.566406-5.59375 1.820312-8.582031l-9.304688-37.222657 11.960938-37 17.644531 38.8125v37.835938c0 5.523438 4.476563 10 10 10h50c3.078125 0 5.984375-1.417969 7.878907-3.847656 1.898437-2.425782 2.566406-5.589844 1.820312-8.578125l-9.917969-39.6875-16.839843-92.613281c24.136718 6.894531 36.230468 7.503906 59.605468 2.347656l7.703125 16.785156-19.898437 72.960938c-.820313 3.007812-.191406 6.226562 1.699218 8.703124 1.894532 2.476563 4.832032 3.929688 7.949219 3.929688v30c0 5.523438 4.476563 10 10 10h50c3.078125 0 5.988281-1.417969 7.882813-3.847656 1.894531-2.425782 2.566406-5.589844 1.820312-8.578125l-9.351562-37.394531 14.183594-49.410157 14.464843 50.632813v38.597656c0 5.523438 4.476563 10 10 10h50c3.078125 0 5.988281-1.417969 7.882813-3.847656 1.894531-2.425782 2.566406-5.589844 1.820312-8.578125l-9.875-39.503907-19.765625-138.339843c.613281-3.410157.9375-6.675781.9375-9.730469 0 0-.054687-35.21875-.167969-35.816406-1.964843-10.648438-4.800781-41.367188 4.167969-57.21875l5.773438 2.164062 17.203125 28.976563c2.125 3.578125 6.238281 5.464843 10.335937 4.742187l13.082031-2.308594c17.09375-3.015624 28.511719-18.835937 25.988282-36.011718l-12.476563-84.996094 14.71875-31.273438c1.171875-2.492187 1.265625-5.359374.253907-7.921874zm-210.46875 99.210937c2.828124-4.898437 4.988281-10.03125 6.53125-15.285156 5.097656-4.527344 9.195312-11.972657 15.183593-22.867188 4.871094-8.859375 10.933594-19.886719 19.898438-34.042969 15.050781-23.765624 32.183593-36.628906 50.929687-38.238281 14.089844-1.210937 27.4375 3.980469 38.050782 10.257813-18.707032 1.421875-41.886719 8.105468-57.535157 29.777344-.195312.265624-18.605469 31.882812-39.171875 62.246093-17.792968 26.261719-42.023437 28.550781-42.972656 28.628907-.078125.007812-.15625.011718-.230469.019531l-2.65625.242187zm-163.804688-36.285156c-11.289062-6.519531-16.734375-19.316407-14.492188-31.457031 0 0 83.90625 48.441406 84.25 48.636718 4.703126 2.71875 10.964844 1.007813 13.660157-3.660156 2.761719-4.78125 1.121093-10.894531-3.660157-13.660156l-85.738281-49.5c-11.289062-6.515625-16.734375-19.316406-14.492187-31.460938 0 0 119.574218 69.039063 119.753906 69.140625 9.371094 5.410157 12.730469 17.953125 7.320312 27.320313 0 0-6.421874 11.121094-6.429687 11.140625-2.734375 4.730469-1.070313 10.933593 3.65625 13.660156 4.59375 2.640625 10.886719 1.148437 13.664063-3.652344 0 0 6.4375-11.148437 6.4375-11.148437 7.027343-12.164063 7.078124-27.472656.171874-39.699219-3.5-6.199219-8.632812-11.359375-14.820312-14.941406 0 0-121.242188-70-121.269531-70.015625-6.921875-4.003906-11.878907-10.46875-13.949219-18.199219-1.179688-4.398437-1.34375-8.90625-.53125-13.253906l163.449219 94.367187c17.304687 16 21.328125 42.1875 9.503906 62.667969l-26.066406 45.152344c-4.984375 8.628906-2.597657 19.464843 5.550781 25.207031 5.449219 3.839844 6.773438 11.582031 2.898438 17.007812-3.703126 5.183594-10.851563 6.628907-16.273438 3.285157l-43.175781-26.597657c-.078125-.050781-.160157-.097656-.242188-.148437-16.453125-9.496094-22.320312-30.050781-13.363281-46.792969 2.546875-4.757812.859375-10.679687-3.816406-13.378906zm-34.390625 115.125c-15.59375-4.109375-27.550781-2.976563-36.324219 3.378906-16.914062 12.253906-15.460937 38.472656-14.054687 63.828125.378906 6.863281.738281 13.347656.738281 19.40625 0 22-7.011719 28.121094-19.121094 31.894531 1.140625-15.378906-2.230468-37.070312-7.144531-65.300781-3.3125-19.003906-6.734375-38.65625-6.734375-51.59375 0-13.789062 5.609375-25.007812 16.667969-33.34375 10.246093-7.722656 24.34375-12.023438 37.695312-12.023438 5.160157 0 10.214844.644532 14.882813 1.980469 12.023437 3.445313 23.761718 11.441407 31.699218 17.742188-7.363281 6.902343-13.582031 15.011719-18.304687 24.03125zm29.785156 221.613281v-20h22.191407l5 20zm64.554688-88.144531c11.585937-6.339844 22.234375-13.671875 30.304687-24.214844l13.15625 72.359375h-21.578125zm52.636719 88.144531h-27.191407v-20h22.191407zm72.808593 0v-20h22.191407l5 20zm68.023438-104.8125c10.101562-7.550781 19.042969-17.867188 26.046875-28.976562l13.398437 93.789062h-20.925781zm43.167969 84.8125 5 20h-27.191407v-20zm45.722656-239.15625-6.269532 1.105469-15.472656-26.054688c-1.160156-1.957031-2.957031-3.460937-5.085937-4.257812 0 0-16.085938-6.023438-16.128907-6.039063-.074218-.027344-.144531-.0625-.21875-.085937-15.867187-5.289063-15.304687-22.804688-15.1875-24.832031.375-5.484376-3.75-10.246094-9.238281-10.652344-5.503906-.40625-10.300781 3.726562-10.710937 9.234375-.730469 9.851562 2.421875 28.363281 17.242187 39.28125-12.578125 24.128906-7.179687 60.628906-5.84375 68.339843v33.117188c0 19.378906-19.933593 53.550781-42.335937 64.335938-2.570313 1.234374-4.488282 3.511718-5.277344 6.25l-19.921875 69.414062h-29.375l17.410156-63.835938c.617188-2.261718.417969-4.667968-.558593-6.800781l-12.628907-27.515625c-2-4.359375-6.816406-6.683594-11.472656-5.539062-27.90625 6.851562-35.894531 6.488281-66.558594-2.988282 1.21875-4.601562 2.59375-10.246093 3.554688-15.53125.988281-5.433593-2.613281-10.640624-8.050781-11.628906-5.433594-.984375-10.636719 2.617188-11.625 8.054688-1.402344 7.710937-6.058594 24.214844-6.121094 24.894531-5.46875 19.113281-18.398438 28.59375-41.492188 40.074219-2.410156 1.195312-4.234375 3.316406-5.0625 5.878906l-17.761718 54.9375h-29.183594l6.015625-19.558594c.519531-1.6875.585937-3.484375.183593-5.207031-9.695312-41.722656-19.730468-88.75-19.742187-95.234375v-20c0-36.367188 27.886719-66.3125 63.394531-69.65625 4.660156 8.175781 11.496094 15.265625 20.257813 20.355469l43.058593 26.527343c5.214844 3.210938 11.03125 4.753907 16.796876 4.753907 10.085937 0 20.007812-4.71875 26.238281-13.441407 10.03125-14.042968 6.824219-34.277343-7.007813-44.519531l1.464844-2.542969 16.644531-1.511718c2.933594-.238282 35.144531-3.601563 58.011719-37.355469 19.566406-28.890625 36.765625-58.140625 39.097656-62.128906 21.828125-29.613281 66.941406-19.835938 67.371094-19.738281 3.359375.773437 6.882812-.230469 9.320312-2.671876 6.238282-6.234374 14.210938-7.359374 20.535157-6.96875l-10.652344 22.640626c-.835937 1.777343-1.132813 3.765624-.847656 5.710937l12.917969 87.980469c.9375 6.394531-3.316407 12.289062-9.683594 13.410156zm0 0"/><path d="m457 149c0 5.523438-4.476562 10-10 10s-10-4.476562-10-10 4.476562-10 10-10 10 4.476562 10 10zm0 0"/><path d="m239 218c0 5.523438-4.476562 10-10 10s-10-4.476562-10-10 4.476562-10 10-10 10 4.476562 10 10zm0 0"/></svg>
