
<svg height="512pt" viewBox="0 0 512 512" width="512pt" xmlns="http://www.w3.org/2000/svg"><path d="m10 15h40v80h-40zm0 0" fill="#fa9664"/><path d="m50 35h40v40h-40zm0 0" fill="#96786e"/><path d="m462 15h40v80h-40zm0 0" fill="#fa9664"/><path d="m422 35h40v40h-40zm0 0" fill="#96786e"/><path d="m90 10h332v90h-332zm0 0" fill="#fad296"/><path d="m106 100h300v30.667969l-10 29.332031 10 58-10 23.332031 10 24-10 20 10 23.335938v66l-10 37.332031h-290v-67l10-43-10-19v-41l10-20-10-21 10-20.667969-10-40zm0 0" fill="#f0e6d2"/><path d="m462 417h40v80h-40zm0 0" fill="#fa9664"/><path d="m422 437h40v40h-40zm0 0" fill="#96786e"/><path d="m10 417h40v80h-40zm0 0" fill="#fa9664"/><path d="m50 437h40v40h-40zm0 0" fill="#96786e"/><path d="m90 412h332v90h-332zm0 0" fill="#fad296"/><path d="m462 105h40c5.523438 0 10-4.476562 10-10v-80c0-5.523438-4.476562-10-10-10h-40c-5.523438 0-10 4.476562-10 10v10h-20v-15c0-5.523438-4.476562-10-10-10h-332c-5.523438 0-10 4.476562-10 10v15h-20v-10c0-5.523438-4.476562-10-10-10h-40c-5.523438 0-10 4.476562-10 10v80c0 5.523438 4.476562 10 10 10h40c5.523438 0 10-4.476562 10-10v-10h20v15c0 5.523438 4.476562 10 10 10h6v30.332031c0 .816407.101562 1.632813.296875 2.425781l9.121094 36.484376-8.421875 17.402343c-1.320313 2.730469-1.332032 5.914063-.023438 8.65625l7.898438 16.59375-7.816406 15.632813c-.695313 1.386718-1.054688 2.921875-1.054688 4.472656v41c0 1.621094.394531 3.222656 1.152344 4.65625l8.265625 15.707031-9.15625 39.371094c-.175781.742187-.261719 1.503906-.261719 2.265625v57h-6c-5.523438 0-10 4.476562-10 10v15h-20v-10c0-5.523438-4.476562-10-10-10h-40c-5.523438 0-10 4.476562-10 10v80c0 5.523438 4.476562 10 10 10h40c5.523438 0 10-4.476562 10-10v-10h20v15c0 5.523438 4.476562 10 10 10h332c5.523438 0 10-4.476562 10-10v-15h20v10c0 5.523438 4.476562 10 10 10h40c5.523438 0 10-4.476562 10-10v-80c0-5.523438-4.476562-10-10-10h-40c-5.523438 0-10 4.476562-10 10v10h-20v-15c0-5.523438-4.476562-10-10-10h-12.96875l6.628906-24.746094c.226563-.84375.339844-1.714844.339844-2.585937v-66c0-1.355469-.273438-2.695313-.808594-3.9375l-8.171875-19.074219 7.925781-15.851562c1.296876-2.597657 1.402344-5.632813.285157-8.316407l-8.375-20.097656 8.335937-19.449219c.761719-1.777344.992188-3.734375.664063-5.640625l-9.566407-55.488281 9.175782-26.917969c.355468-1.039062.535156-2.128906.535156-3.226562v-20.667969h6c5.523438 0 10-4.476562 10-10v-15h20v10c0 5.523438 4.476562 10 10 10zm10-80h20v60h-20zm-372-5h312v70h-20v-20c0-5.523438-4.476562-10-10-10s-10 4.476562-10 10v20h-20v-40c0-5.523438-4.476562-10-10-10s-10 4.476562-10 10v40h-20v-30c0-5.523438-4.476562-10-10-10s-10 4.476562-10 10v30h-26v-40c0-5.523438-4.476562-10-10-10s-10 4.476562-10 10v40h-26v-30c0-5.523438-4.476562-10-10-10s-10 4.476562-10 10v30h-20v-40c0-5.523438-4.476562-10-10-10s-10 4.476562-10 10v40h-20v-20c0-5.523438-4.476562-10-10-10s-10 4.476562-10 10v20h-20zm-60 65h-20v-60h20zm20-20v-20h20v20zm-20 422h-20v-60h20zm20-20v-20h20v20zm412-40h20v60h-20zm-20 20v20h-20v-20zm-40 45h-312v-70h20v20c0 5.523438 4.476562 10 10 10s10-4.476562 10-10v-20h20v40c0 5.523438 4.476562 10 10 10s10-4.476562 10-10v-40h20v30c0 5.523438 4.476562 10 10 10s10-4.476562 10-10v-30h26v40c0 5.523438 4.476562 10 10 10s10-4.476562 10-10v-40h26v30c0 5.523438 4.476562 10 10 10s10-4.476562 10-10v-30h20v40c0 5.523438 4.476562 10 10 10s10-4.476562 10-10v-40h20v20c0 5.523438 4.476562 10 10 10s10-4.476562 10-10v-20h20zm-16-362.992188-9.464844 27.765626c-.539062 1.582031-.675781 3.277343-.390625 4.925781l9.496094 55.082031-8.832031 20.613281c-1.066406 2.484375-1.078125 5.292969-.039063 7.785157l8.238281 19.773437-7.953124 15.90625c-1.316407 2.632813-1.40625 5.710937-.246094 8.414063l9.191406 21.445312v62.632812l-7.675781 28.648438h-272.324219v-55.851562l9.738281-41.882813c.546875-2.339844.230469-4.796875-.890625-6.921875l-8.847656-16.816406v-36.167969l8.945312-17.886719c1.375-2.757812 1.40625-5.992187.082032-8.773437l-7.9375-16.664063 7.910156-16.347656c1.019531-2.109375 1.269531-4.507812.699219-6.78125l-9.699219-38.804688v-29.101562h280zm36-64.007812v-20h20v20zm0 0"/><path d="m268.5 160c5.511719 0 10-4.488281 10-10s-4.488281-10-10-10c-5.519531 0-10 4.488281-10 10s4.480469 10 10 10zm0 0"/><path d="m168.5 160h60c5.511719 0 10-4.488281 10-10s-4.488281-10-10-10h-60c-5.511719 0-10 4.488281-10 10s4.488281 10 10 10zm0 0"/><path d="m308.5 160h40c5.511719 0 10-4.488281 10-10s-4.488281-10-10-10h-40c-5.519531 0-10 4.488281-10 10s4.480469 10 10 10zm0 0"/><path d="m168.5 200h30c5.523438 0 10-4.476562 10-10s-4.476562-10-10-10h-30c-5.523438 0-10 4.476562-10 10s4.476562 10 10 10zm0 0"/><path d="m308.5 200h30c5.523438 0 10-4.476562 10-10s-4.476562-10-10-10h-30c-5.523438 0-10 4.476562-10 10s4.476562 10 10 10zm0 0"/><path d="m238.5 180c-5.523438 0-10 4.476562-10 10s4.476562 10 10 10h30c5.523438 0 10-4.476562 10-10s-4.476562-10-10-10zm0 0"/><path d="m168.5 240h180c5.523438 0 10-4.476562 10-10s-4.476562-10-10-10h-180c-5.523438 0-10 4.476562-10 10s4.476562 10 10 10zm0 0"/><path d="m328.5 270c0-5.511719-4.488281-10-10-10h-80c-5.511719 0-10 4.488281-10 10s4.488281 10 10 10h80c5.511719 0 10-4.488281 10-10zm0 0"/><path d="m188.5 270c0 5.511719 4.488281 10 10 10s10-4.488281 10-10-4.488281-10-10-10-10 4.488281-10 10zm0 0"/><path d="m168.5 320h120c5.523438 0 10-4.476562 10-10s-4.476562-10-10-10h-120c-5.523438 0-10 4.476562-10 10s4.476562 10 10 10zm0 0"/><path d="m348.5 300h-20c-5.523438 0-10 4.476562-10 10s4.476562 10 10 10h20c5.523438 0 10-4.476562 10-10s-4.476562-10-10-10zm0 0"/><path d="m168.5 360h30c5.511719 0 10-4.488281 10-10s-4.488281-10-10-10h-30c-5.511719 0-10 4.488281-10 10s4.488281 10 10 10zm0 0"/><path d="m238.5 340c-5.511719 0-10 4.488281-10 10s4.488281 10 10 10 10-4.488281 10-10-4.488281-10-10-10zm0 0"/><path d="m328.5 340h-50c-5.511719 0-10 4.488281-10 10s4.488281 10 10 10h50c5.511719 0 10-4.488281 10-10s-4.488281-10-10-10zm0 0"/></svg>
