<?xml version="1.0" encoding="utf-8"?><svg version="1.1" id="圖層_1" xmlns="http://www.w3.org/2000/svg" xmlns:xlink="http://www.w3.org/1999/xlink" x="0px" y="0px" viewBox="0 0 100 100" enable-background="new 0 0 100 100" xml:space="preserve"><path fill="#f4dd57" stroke="#000" stroke-width="3.5" stroke-miterlimit="10" d="M53.1,14.2l8.5,17.1c0.5,1,1.5,1.7,2.6,1.9 L83.1,36c2.8,0.4,4,3.9,1.9,5.9L71.3,55.2c-0.8,0.8-1.2,1.9-1,3.1l3.2,18.8c0.5,2.8-2.5,5-5,3.6l-16.9-8.9c-1-0.5-2.2-0.5-3.2,0 l-16.9,8.9c-2.5,1.3-5.5-0.8-5-3.6l3.2-18.8c0.2-1.1-0.2-2.3-1-3.1L15,41.9c-2-2-0.9-5.5,1.9-5.9l18.9-2.7c1.1-0.2,2.1-0.9,2.6-1.9 l8.5-17.1C48.2,11.6,51.8,11.6,53.1,14.2z"/><g><ellipse fill="#333435" cx="40.2" cy="45.8" rx="3.2" ry="6"/><ellipse fill="#333435" cx="59.8" cy="45.8" rx="3.2" ry="6"/></g><path fill="#333435" d="M44,58.8c-1.2,0-1.6,2.1-0.6,2.9c1.9,1.6,4.2,2.5,6.6,2.5s4.7-0.9,6.6-2.5c1-0.8,0.6-2.9-0.6-2.9H44z"/><metadata xmlns:d="https://loading.io/stock/">
<d:name>star</d:name>
<d:tags>star,smile,invincible,power up,lucky star,happy</d:tags>
<d:license>by</d:license>
<d:slug>wss970</d:slug>
</metadata></svg>
